<?xml version="1.0" standalone="no"?>
<!DOCTYPE svg PUBLIC "-//W3C//DTD SVG 1.1//EN" "http://www.w3.org/Graphics/SVG/1.1/DTD/svg11.dtd" >
<svg xmlns="http://www.w3.org/2000/svg" xmlns:xlink="http://www.w3.org/1999/xlink" version="1.1">
<metadata></metadata>
<defs>
<font id="caustics_demoregular" horiz-adv-x="970" >
<font-face units-per-em="2048" ascent="1583" descent="-465" />
<missing-glyph horiz-adv-x="395" />
<glyph horiz-adv-x="0" />
<glyph horiz-adv-x="682" />
<glyph unicode=" "  horiz-adv-x="395" />
<glyph unicode="&#x09;" horiz-adv-x="395" />
<glyph unicode="&#xa0;" horiz-adv-x="395" />
<glyph unicode="A" horiz-adv-x="1075" d="M0 94q28 11 38.5 16.5t32 20.5t35 38t23.5 56q295 1039 297 1045q-11 38 -24 58t-40 40h291q-21 -20 -23 -49v-7q0 -28 13 -79q301 -1051 301 -1053q19 -49 55 -80l7 -6h-316q12 12 18 19.5t14 22.5t7.5 28.5t-2.5 36.5l-115 405q-37 -22 -99.5 -40.5t-111.5 -31.5 t-101.5 -45.5t-82.5 -82.5l-51 -181q-4 -16 -4 -29.5t3 -23.5t9.5 -19.5t13.5 -16t18 -13t19 -10.5t19.5 -9.5t17.5 -9.5h-262zM240 483q31 35 78.5 58.5t91 34.5t99 29t93.5 40l-156 557z" />
<glyph unicode="B" d="M0 94q29 32 39 61t10 70v1014q0 41 -10 69.5t-39 59.5h406q64 -1 121 -10t110.5 -31t92 -54.5t62 -83t23.5 -114.5q0 -105 -57 -172t-154 -98q130 -31 215.5 -122t85.5 -226q0 -86 -36.5 -156.5t-97 -114.5t-135.5 -68t-155 -24h-481zM254 131q109 0 121 2q31 3 63 19 q90 37 146.5 120.5t56.5 184.5q-1 109 -73 205q-70 94 -165 94h-6h-3q-51 0 -87 -31q-37 -32 -53 -63v-531zM254 713q43 63 137 100q10 3 25 10q76 32 124 98t48 148q0 89 -54 159t-137 95q-45 10 -78 10h-65v-620z" />
<glyph unicode="C" horiz-adv-x="1038" d="M0 725v14q0 129 43.5 244.5t120.5 202.5q76 87 174.5 134.5t206.5 47.5q56 0 141 -13t148 -13t120 26v-248q-35 0 -74 22t-76 53t-76 62.5t-87 53.5t-96 22q-55 0 -105.5 -45.5t-89.5 -126.5q-84 -180 -84 -422v-14q0 -162 39 -299.5t103 -216t137 -78.5q53 0 104.5 19 t89 44.5t96.5 55.5t119 47v-158h-6q-72 0 -182 -22q-116 -23 -221 -23q-107 0 -207 49.5t-174 133.5t-119 201.5t-45 246.5z" />
<glyph unicode="D" horiz-adv-x="1103" d="M0 94q29 32 39 61t10 70v1014q0 41 -10 70t-39 61q358 -2 481 -2q108 0 206.5 -47.5t174.5 -134.5q77 -87 120.5 -202.5t43.5 -244.5v-14q0 -129 -43.5 -244t-120.5 -202q-76 -88 -175 -136.5t-206 -48.5h-481zM254 131h108q70 0 129.5 27.5t99.5 70.5t71 101t49 114.5 t29.5 115.5t15.5 100t4 71q0 31 -4 72t-15.5 100t-29.5 116t-49 115t-71 101t-99.5 70.5t-129.5 27.5h-108v-1202z" />
<glyph unicode="E" horiz-adv-x="974" d="M0 94q29 32 39 61t10 70v1014q0 41 -10 69.5t-39 59.5h469q34 -4 88 -9.5t167 -6.5h12q103 0 151 16v-248q-41 0 -108 33.5t-130.5 73t-153 73t-169.5 33.5h-72v-676q11 -2 22 -2q30 0 58 13q38 17 67.5 44.5t58 56.5t65 50.5t75.5 22.5v-250q-42 44 -84 57q-26 8 -48 8 q-13 -1 -24 -3q-31 -8 -86.5 -19.5t-103.5 -11.5v-492h72q80 0 169.5 33.5t153 73t130.5 73t108 33.5v-250q-50 18 -154.5 18t-184.5 -9l-79 -9h-469z" />
<glyph unicode="F" horiz-adv-x="989" d="M0 94q0 1 1 2t1 2h-2q29 31 39 59.5t10 69.5v1014q0 41 -10 70t-39 61h469q34 -5 88 -10.5t167 -6.5h12q104 0 151 17v-250q-41 0 -108 33.5t-130.5 73t-153 73t-169.5 33.5h-72v-676q9 -1 18 -1q31 0 61 13q38 17 67.5 44.5t58.5 56t65.5 50t75.5 22.5v-250 q-42 44 -84 57q-26 8 -48 8q-13 -1 -24 -3q-31 -8 -86.5 -19.5t-103.5 -11.5v-400q0 -41 10 -70t39 -61h-303z" />
<glyph unicode="G" horiz-adv-x="1060" d="M0 725v14q0 129 43.5 244.5t120.5 202.5q76 87 174.5 134.5t206.5 47.5q56 0 141 -13t148 -13t120 26v-248q-35 0 -74 22t-76 53t-76 62.5t-87 53.5t-96 22q-55 0 -105.5 -45.5t-89.5 -126.5q-84 -180 -84 -422v-14q0 -162 39 -299.5t103 -216t137 -78.5q39 0 78 11 t63 23.5t66 37.5v203q0 41 -10.5 69.5t-39.5 59.5h252v-396h-6q-71 0 -182 -22q-115 -23 -221 -23q-107 0 -207 49.5t-174 133.5t-119 201.5t-45 246.5z" />
<glyph unicode="H" horiz-adv-x="1011" d="M0 94q29 32 39 61t10 70v1014q0 41 -10 69.5t-39 59.5h303q-29 -31 -39 -59.5t-10 -69.5v-567q30 54 85 87.5t109 46t122 35t112 52.5v346q0 41 -10.5 70t-40.5 59h305q-30 -30 -40.5 -59t-10.5 -70v-1014q0 -41 10.5 -70t40.5 -61h-305q30 32 40.5 61t10.5 70v623 q-39 -25 -109.5 -45.5t-125.5 -34t-111 -54t-82 -106.5v-383q0 -41 10 -70t39 -61h-303z" />
<glyph unicode="I" horiz-adv-x="401" d="M0 94q29 32 39 61t10 70v1014q0 41 -10 69.5t-39 59.5h303q-29 -31 -39 -59.5t-10 -69.5v-1014q0 -41 10 -70t39 -61h-303z" />
<glyph unicode="J" horiz-adv-x="849" d="M0 119v250q33 -1 63 -20.5t51 -47.5l45 -60t45.5 -58t52.5 -41q23 -12 50 -12q8 0 17 1q68 0 131 79.5t63 160.5v864q0 41 -10 69.5t-39 59.5h303q-29 -31 -39 -59.5t-10 -69.5v-909q-3 -64 -27 -93q-51 -68 -156 -103.5t-216 -35.5q-51 0 -95.5 12.5t-68.5 23.5 q-23 12 -62 12h-3q-41 -1 -95 -23z" />
<glyph unicode="K" horiz-adv-x="1007" d="M0 94q29 31 39 59.5t10 69.5v1016q0 41 -10 69.5t-39 59.5h303q-29 -31 -39 -59.5t-10 -69.5v-465q62 73 131 170t116 165t98 131t101 95.5t101 32.5v-250q-37 26 -77 26q-1 0 -2 1q-38 1 -76 -17q-39 -18 -89.5 -64.5t-97.5 -98t-115 -134.5q52 -9 117 -48t94 -76 q40 -49 71 -120.5t52 -139t47 -134.5t70 -125t106 -92h-291q-36 48 -56 110t-25 120.5t-7.5 120t-9.5 116t-24.5 102t-59 83.5t-106.5 55q-44 -52 -68 -84v-496q0 -41 10 -69.5t39 -59.5h-303z" />
<glyph unicode="L" d="M0 94q29 32 39 61t10 70v1014q0 41 -10 70t-39 61h303q-29 -32 -39 -61t-10 -70v-1108h72q80 0 169.5 33.5t153 73t130.5 73t108 33.5v-250q-50 18 -154.5 18t-184.5 -9l-79 -9h-469z" />
<glyph unicode="M" horiz-adv-x="1273" d="M0 94q114 46 123 131v1026q-3 68 -49 119l270 -2l320 -788q32 75 63 274q11 75 19 118.5t25 110.5t37.5 111t55 92t78.5 82v2h252q-29 -32 -39 -61t-10 -70v-1014q0 -41 10 -70t39 -61h-303q30 32 40.5 61.5t10.5 69.5v1100q-30 -27 -54 -58.5t-42.5 -76.5t-29 -73 t-23 -90t-16 -82t-15.5 -91q-8 -56 -13.5 -87.5t-16 -80t-21 -78t-28.5 -67t-39 -62t-51 -48.5t-67 -40l-2 2l-366 905v-1073q9 -85 123 -131h-281z" />
<glyph unicode="N" horiz-adv-x="1095" d="M0 94q114 46 123 131v1024q-3 70 -49 121h243l549 -1122v991q-7 88 -123 129h283q-116 -41 -123 -129v-1026q0 -36 12 -66l5 -8q14 -24 32 -45h-237l-557 1137v-1006q9 -85 123 -131h-281z" />
<glyph unicode="O" horiz-adv-x="1163" d="M0 725v14q0 129 43.5 244.5t120.5 202.5q76 87 174.5 134.5t206.5 47.5q107 0 207 -49.5t174 -132.5t119 -200.5t45 -246.5v-14q0 -129 -45 -246.5t-119 -201.5t-174 -133.5t-207 -49.5t-207 49.5t-174 133.5t-119 201.5t-45 246.5zM164 858q18 -140 84 -274 q66 -132 168 -231t206 -137q53 -19 98 -19q44 0 81 18q76 39 109 145q22 70 22 153q0 45 -6 93q-18 140 -84 273q-100 201 -271 315q-79 52 -151 66q-25 5 -47 5q-45 0 -84 -18q-76 -37 -109 -143q-22 -69 -22 -153q0 -44 6 -93z" />
<glyph unicode="P" horiz-adv-x="866" d="M0 94q29 32 39 61t10 70v1014q0 41 -10 70t-39 61l399 -2q78 -1 149.5 -23.5t130 -64.5t93.5 -110.5t35 -153.5q0 -86 -33.5 -155.5t-89.5 -113t-126 -67t-146 -25.5q-127 0 -158 -135v-295q0 -41 10 -70t39 -61h-303zM254 598q37 67 129 96q6 2 25 11q73 31 122.5 118.5 t49.5 186.5q0 108 -54.5 198t-136.5 115q-42 10 -78 10h-57v-735z" />
<glyph unicode="Q" horiz-adv-x="1167" d="M0 723v14q0 129 43.5 244.5t120.5 202.5q76 87 175 135.5t206 48.5t207 -49.5t174 -133.5t119 -201.5t45 -246.5v-14q0 -179 -82 -329t-215 -230q43 -7 77 -7q56 0 86 19l-20 -250q-34 3 -59 20t-42 40.5t-34.5 48.5t-47 47.5t-69.5 32.5q-68 -21 -139 -21 q-107 0 -207 49.5t-174 132.5t-119 200.5t-45 246.5zM164 856q18 -140 84 -272q66 -133 168 -232t206 -136q52 -19 97 -19t82 18q76 37 109 143q22 69 22 153q0 45 -6 94q-18 141 -84 274q-50 98 -121 179t-150 134q-78 52 -151 67q-26 5 -50 5q-44 0 -81 -17 q-76 -37 -109 -143q-22 -70 -22 -154q0 -45 6 -94z" />
<glyph unicode="R" horiz-adv-x="997" d="M0 94q29 32 39 61t10 70v1014q0 41 -10 70t-39 61l399 -2q78 -1 149.5 -23.5t130 -64.5t93.5 -110.5t35 -153.5q0 -153 -98.5 -245.5t-243.5 -111.5q33 -14 65 -43q42 -37 78 -94t64 -114.5t59.5 -115t79 -111t109.5 -87.5h-289q-40 61 -59.5 141t-24.5 145t-16 125.5 t-46 99t-102 48.5q-105 -17 -129 -147v-281q0 -41 10 -70t39 -61h-303zM254 598q37 67 129 96q6 2 25 11q73 31 122.5 118.5t49.5 186.5q0 108 -54.5 198t-136.5 115q-42 10 -78 10h-57v-735z" />
<glyph unicode="S" horiz-adv-x="958" d="M0 123v250q52 0 100 -24t84.5 -58t71 -69t73.5 -61.5t77 -29.5q118 1 178 69q50 56 49 121q0 14 -2 29q-8 52 -46.5 100t-93.5 88t-119.5 81t-128.5 85t-117 92t-87.5 111.5t-38.5 134.5v19q0 49 12 91q16 50 42.5 82.5t64.5 58t76.5 39t81.5 22.5t75 11.5t62 2.5h6 q51 0 108 -17q60 -19 99 -35q35 -15 79 -14h11q51 2 102 35v-250q-53 0 -100.5 25t-82.5 60.5t-67.5 71t-70.5 61.5t-78 28q-52 0 -92 -24.5t-60 -60.5t-28 -76q-5 -25 -5 -48q0 -13 1 -26q10 -64 51 -119t98 -95t123.5 -77.5t130.5 -75.5t116.5 -80.5t83.5 -100.5 q29 -55 29 -120v-8q-2 -70 -25 -125.5t-60.5 -90t-79.5 -58t-91.5 -34.5t-86 -15.5t-72.5 -4.5h-37v2q-45 0 -93.5 12t-85 25t-75.5 22q-22 5 -45 5q-18 0 -35 -3q-41 -7 -82 -34z" />
<glyph unicode="T" horiz-adv-x="1007" d="M0 1120v250h926v-250q-9 11 -31 41.5t-33 43.5t-34.5 37.5t-45.5 36t-54 26t-72.5 21t-90.5 7.5v-1108q0 -42 10 -70.5t39 -60.5h-303q29 32 39 61t10 70v1108q-49 -1 -89.5 -7.5t-72.5 -21t-54 -26t-45.5 -36t-34.5 -37.5t-33.5 -43.5t-30.5 -41.5z" />
<glyph unicode="U" horiz-adv-x="1126" d="M0 1370h303q-29 -32 -39 -61t-10 -70v-825q0 -128 85 -207.5t187 -79.5q64 0 120 15t106 46t84.5 86t46.5 129q8 56 8 119q0 29 -2 60v657q-7 88 -123 129h283q-116 -41 -123 -129v-760q0 -76 -17.5 -137t-48.5 -102t-69.5 -70.5t-85.5 -45.5t-90 -23t-89 -7 q-57 0 -115.5 9.5t-125.5 36.5t-117.5 68t-84.5 111.5t-34 159.5v760q0 41 -10 70t-39 61z" />
<glyph unicode="V" horiz-adv-x="1075" d="M0 1370h297q-19 -20 -23 -42q-1 -7 -2 -15q0 -20 7 -49l280 -1002l279 973q6 18 6.5 34t-5.5 28t-13.5 21.5t-20 18t-21.5 13.5t-22.5 11t-18.5 9h263q-47 -17 -79.5 -45t-49.5 -86q-219 -765 -299 -1040q11 -40 24 -62t41 -43h-291q24 24 24 56q0 29 -16 81 q-299 1049 -299 1053q-19 49 -55 80z" />
<glyph unicode="W" horiz-adv-x="1554" d="M0 1370h297q-19 -20 -23 -42q-1 -7 -2 -15q0 -20 7 -49l280 -1002l135 469l-2 4q-31 110 -72 254t-62 219t-21 76q-16 48 -56 80l-6 6h297q-19 -19 -23 -42q-1 -7 -1 -16q0 -20 6 -48l282 -1002l279 973q5 16 5.5 30.5t-2.5 25t-10.5 20.5t-14.5 17t-19 14t-19.5 11 t-19.5 9.5t-16 7.5h262q-47 -17 -79.5 -45t-49.5 -86l-287 -1014l-10 -30q11 -38 23.5 -59t39.5 -42h-291q22 22 25 50v10q0 28 -14 77q-59 208 -125 437q-47 -161 -135 -469q11 -40 24 -62t41 -43h-291q24 24 24 56q0 29 -16 81q-299 1049 -299 1053q-19 49 -55 80z" />
<glyph unicode="X" horiz-adv-x="1196" d="M0 1370h391q-33 -21 -39 -43q-2 -6 -1 -12q0 -20 14 -51l270 -469l213 442q20 38 21 61t-13 38t-49 34h262q-51 -20 -77 -32.5t-56.5 -38.5t-46.5 -62l-232 -479l301 -527q36 -62 61 -87.5t85 -49.5h-387q40 23 40 54q0 28 -32 81q-121 212 -256 443l-215 -445 q-20 -44 -20 -69q0 -8 2 -13q8 -24 59 -51h-262q52 20 77.5 32t57 38.5t47.5 62.5l234 484q-332 566 -332 573q-4 7 -13 18.5t-39 35t-65 32.5z" />
<glyph unicode="Y" horiz-adv-x="1177" d="M0 1370h385q-34 -23 -34 -53q0 -16 9 -33l297 -475l232 428q21 37 22.5 61.5t-12.5 39.5t-47 32h258q-72 -21 -112 -49.5t-68 -83.5l-271 -496v-516q0 -41 10.5 -69.5t41.5 -59.5h-305q30 30 40.5 59t10.5 70v516l-342 551q-33 46 -105 74q-2 0 -10 4z" />
<glyph unicode="Z" horiz-adv-x="978" d="M0 96l618 1237h-57q-80 0 -169.5 -33.5t-153 -73t-130.5 -73t-108 -33.5v250q50 -18 154.5 -18t183.5 9l80 9l459 -2l-619 -1237h59q80 0 169.5 33.5t152.5 73t130 73t108 33.5v-248q-49 17 -153.5 17t-184.5 -9l-80 -8h-459z" />
<glyph unicode="a" horiz-adv-x="923" d="M0 330q0 56 24.5 99t66 72t92.5 54.5t107 52.5t106 59t94 82t67 113q-38 68 -111 68q-18 0 -41 -17.5t-52.5 -45.5t-64.5 -58.5t-89 -62t-115 -50.5v252q65 -16 122 -16h7q52 0 84 8q34 8 75 16.5t70 8.5q58 0 106.5 -8t83.5 -20t63 -33t46 -40.5t30.5 -48.5t19 -50.5 t10 -54t4 -52t0.5 -50.5v-383q0 -41 10 -69.5t39 -59.5h-303q29 31 39 59.5t10 69.5v6q-13 -16 -31.5 -34.5t-51.5 -44t-77 -42t-90 -16.5q-164 0 -257 63.5t-93 172.5zM225 301q0 -71 46 -114.5t98 -43.5q42 0 83 17.5t71 44.5t48 47.5t29 36.5v321q0 135 -27 215 q-15 -47 -42.5 -92t-59 -79.5t-66.5 -68.5t-66.5 -66t-57 -64.5t-41 -72t-15.5 -81.5z" />
<glyph unicode="b" horiz-adv-x="948" d="M0 94q29 32 39 61t10 70v1014q0 41 -10 69.5t-39 59.5h303q-29 -31 -39 -59.5t-10 -69.5v-356q61 82 180 82q63 0 123 -13t120 -44.5t104.5 -79.5t72 -125t27.5 -173t-27.5 -173t-72 -125t-104.5 -80t-120 -45t-123 -13h-434zM254 131h102q104 0 183 122.5t79 276.5 q0 101 -26 191t-78 149.5t-119 59.5q-43 0 -86 -34t-55 -75v-690z" />
<glyph unicode="c" horiz-adv-x="798" d="M0 530q0 96 29 173t75.5 125t108.5 80t123.5 44.5t124.5 12.5q34 0 89.5 -8.5t96 -8.5t74.5 17v-250q-40 2 -69.5 25t-47.5 54t-35.5 61.5t-44 51.5t-61.5 21q-61 0 -108 -59t-70 -148.5t-23 -190.5t23 -190.5t70 -149t108 -59.5q43 0 74.5 13t48.5 29t52 31.5t83 18.5 v-129q-34 18 -74.5 18t-96 -9t-89.5 -9q-63 0 -124.5 13t-123.5 45t-108.5 80t-75.5 125t-29 173z" />
<glyph unicode="d" horiz-adv-x="952" d="M0 530q0 96 28 173t72.5 125t104.5 79.5t120.5 44.5t123.5 13q115 0 180 -82v356q0 40 -10.5 69.5t-40.5 61.5h303q-29 -32 -39.5 -61t-10.5 -70v-1014q0 -41 10.5 -70t39.5 -61h-432q-63 0 -123.5 13t-120.5 45t-104.5 80t-72.5 125t-28 173zM262 530q0 -100 36 -192.5 t97.5 -149.5t130.5 -57h103v690q-14 41 -57 75t-85 34q-68 0 -120.5 -59.5t-78.5 -149.5t-26 -191z" />
<glyph unicode="e" horiz-adv-x="884" d="M0 522q0 81 27.5 158t80 141.5t139.5 104t195 39.5q69 0 151 -27t147 -83t65 -124q0 -56 -23.5 -96.5t-63 -65.5t-88 -45t-102 -42.5t-102 -50t-91 -75t-65.5 -110.5q27 -115 88 -115q18 0 41.5 17t52.5 44.5t64.5 57.5t89.5 61.5t115 50.5v-249q-65 15 -122.5 15t-92 -8 t-75.5 -17t-69 -9q-79 0 -143.5 32t-104 79.5t-66.5 107.5t-37.5 112.5t-10.5 96.5zM227 530q0 -178 27 -247q20 64 62 119t85.5 92.5t84.5 75t67.5 85.5t26.5 105q0 68 -37 118t-101 50q-57 -1 -107.5 -63.5t-79 -154t-28.5 -180.5z" />
<glyph unicode="f" horiz-adv-x="659" d="M0 930v35h115q-64 53 -93 113q-22 47 -22 89q0 11 1 21q7 50 35.5 91.5t79 65t109.5 23.5q31 0 111 -13q77 -13 138 -13h5q63 1 101 28v-250q-46 0 -85 22t-66.5 53t-55 62.5t-64.5 53.5t-80 22q-59 0 -70 -66q-3 -16 -3 -34q0 -62 40 -137q46 -85 121 -131h263v-35h-263 v-705q0 -40 11 -69t41 -62h-303q29 32 39 61t10 70v705h-115z" />
<glyph unicode="g" horiz-adv-x="905" d="M0 -82q35 0 76 -20t79.5 -48t77.5 -56t83.5 -48t84.5 -20q96 0 148.5 43t52.5 106q0 55 -25 86t-65 39q-34 7 -73 7q-7 0 -15 -1q-48 -1 -96 -5.5t-88 -4.5t-65 16t-25 51q0 36 42 63t91 42q-121 27 -201 132t-80 243q0 103 56.5 201.5t147 159.5t183.5 61q33 0 82 -11 q54 47 86 88t35 82l190 -161q-36 -42 -79.5 -55t-108.5 -15q66 -53 103.5 -134t37.5 -175q0 -103 -56 -201.5t-146.5 -159.5t-184.5 -61h-2q-53 -28 -53 -74q0 -27 29 -36q19 -6 46 -6q14 0 31 2q47 5 104 13.5t114 10.5h16q48 0 88 -8q47 -9 76.5 -45.5t29.5 -98.5 q0 -42 -18 -77t-46.5 -58t-69 -41t-80 -27.5t-84.5 -15.5t-78.5 -8t-65.5 -2q-21 0 -99 14.5t-153 14.5t-133 -29v227zM158 727q-1 -8 -1 -16q0 -107 56 -226q60 -124 152 -190q64 -46 112 -46q21 0 39 9q59 29 64 143q1 10 1 19q0 106 -55 223q-60 124 -152 190 q-65 46 -113 46q-22 0 -40 -9q-59 -29 -63 -143z" />
<glyph unicode="h" horiz-adv-x="927" d="M0 94q29 32 39 61t10 70v1014q0 41 -10 69.5t-39 59.5h303q-29 -31 -39 -59.5t-10 -69.5v-365q91 91 209 91q71 0 133 -22.5t111.5 -67.5t78.5 -120.5t29 -172.5v-357q0 -41 10 -70t39 -61h-303q30 32 40.5 61.5t10.5 69.5v422q0 74 -16.5 135.5t-57.5 104.5t-100 43 q-37 0 -79 -21.5t-65 -41t-40 -38.5v-604q0 -41 10 -70t39 -61h-303z" />
<glyph unicode="i" horiz-adv-x="376" d="M0 94q29 32 39 61t10 70v611q0 41 -10 69.5t-39 59.5h303q-29 -31 -39 -59.5t-10 -69.5v-611q0 -41 10 -70t39 -61h-303zM27 1157q0 52 37 88.5t88 36.5q52 0 88 -36t36 -89q0 -51 -36 -87t-88 -36q-51 0 -88 36t-37 87z" />
<glyph unicode="j" horiz-adv-x="405" d="M-455 -90q39 -1 73 -21.5t59.5 -48t52 -55t62.5 -45.5q30 -14 65 -14h12q76 0 135 94t59 264v752q0 41 -10 69.5t-39 59.5h303q-29 -29 -39 -56.5t-12 -66.5l2 -754q0 -116 -58.5 -210t-149.5 -142q-84 -45 -176 -45h-15q-50 0 -95 8.5t-69 15.5q-15 4 -36 4 q-13 0 -29 -1q-41 -5 -95 -27v219zM41 1157q0 53 36.5 89t88.5 36q51 0 88 -36.5t37 -88.5q0 -51 -37 -87t-88 -36q-52 0 -88.5 36t-36.5 87z" />
<glyph unicode="k" horiz-adv-x="985" d="M0 94q29 32 39 61t10 70v1014q0 41 -10 70t-39 61h303q-29 -32 -39 -61t-10 -70v-631q97 58 189.5 131t142 117.5t109 76.5t118.5 32v-250q-41 33 -102 35h-9q-57 0 -125 -23q-73 -25 -171 -76q56 -27 110 -84.5t98.5 -124.5t87.5 -133.5t95 -126t104 -88.5h-291 q-32 36 -50 97t-27.5 123t-23.5 123.5t-49.5 114t-94.5 79.5q-74 -42 -111 -66v-340q0 -41 10 -70t39 -61h-303z" />
<glyph unicode="l" horiz-adv-x="372" d="M0 94q29 32 39 61t10 70v1014q0 41 -10 70t-39 61h303q-29 -32 -39 -61t-10 -70v-1014q0 -41 10 -70t39 -61h-303z" />
<glyph unicode="m" horiz-adv-x="1284" d="M0 94q29 32 39 61t10 70v611q0 41 -10 69.5t-39 59.5h254v-68q88 68 156 68q127 0 204 -80q86 80 197 80q72 0 134 -22.5t111.5 -67.5t78 -120.5t28.5 -172.5v-357q0 -40 10.5 -69.5t40.5 -61.5h-303q29 32 39.5 61t10.5 70v422q0 117 -43.5 200t-131.5 83 q-67 0 -151 -70q74 -99 74 -278v-357q0 -40 10.5 -69.5t40.5 -61.5h-305q30 32 40.5 61t10.5 70v422q0 44 -1 70t-4 64t-10.5 60.5t-19.5 45t-32.5 33t-47.5 10.5q-52 0 -137 -78v-627q0 -41 10 -70t39 -61h-303z" />
<glyph unicode="n" horiz-adv-x="911" d="M0 94q29 32 39 61t10 70v611q0 41 -10 69.5t-39 59.5h254v-68q82 68 184 68q72 0 134 -22.5t112 -67.5t78.5 -120.5t28.5 -172.5v-357q0 -40 10.5 -69.5t40.5 -61.5h-303q29 32 39 61t10 70v422q0 74 -16 135.5t-57 104.5t-101 43q-77 0 -160 -78v-627q0 -41 10 -70 t39 -61h-303z" />
<glyph unicode="o" horiz-adv-x="849" d="M0 530q0 180 115.5 307.5t279.5 127.5q163 0 278 -127.5t115 -307.5t-115 -308t-278 -128q-164 0 -279.5 128t-115.5 308zM163 724q4 -124 73 -271q71 -145 167 -225q69 -57 122 -57q21 0 40 9q62 28 62 143q-1 6 -1 13q-4 126 -73 270q-71 146 -167 226q-69 58 -121 58 q-21 0 -40 -9q-62 -30 -62 -143v-14z" />
<glyph unicode="p" horiz-adv-x="958" d="M0 -309q29 32 39 60.5t10 70.5v1014q0 41 -10 69.5t-39 59.5h254v-82q61 82 180 82q63 0 123 -13t120 -44.5t104.5 -79.5t72 -125t27.5 -173t-27.5 -173t-72 -125t-104.5 -80t-120 -45t-123 -13h-180v-272q0 -41 10 -70t39 -61h-303zM254 131h102q104 0 183 122.5 t79 276.5q0 101 -26 191t-78 149.5t-119 59.5q-43 0 -86 -34t-55 -75v-690z" />
<glyph unicode="q" horiz-adv-x="948" d="M0 530q0 96 28 173t72.5 125t104.5 79.5t120.5 44.5t123.5 13h432q-29 -31 -39.5 -59.5t-10.5 -69.5v-1014q0 -42 10 -70.5t40 -60.5h-303q30 32 40.5 61.5t10.5 69.5v354q-67 -82 -180 -82q-63 0 -123.5 13t-120.5 45t-104.5 80t-72.5 125t-28 173zM262 530 q0 -101 26 -191t78.5 -149t120.5 -59q42 0 85 34t57 75v690h-103q-69 0 -130.5 -57.5t-97.5 -150t-36 -192.5z" />
<glyph unicode="r" horiz-adv-x="790" d="M0 94q29 30 39 57.5t12 67.5l-2 617q0 41 -10 69.5t-39 59.5h254v-50q85 50 184 50h11q42 0 75 -8.5t49 -15.5t51 -2.5t89 26.5v-252q-39 1 -68.5 24t-47.5 54.5l-36 63t-46 53.5t-66 22q-75 0 -133.5 -91t-61.5 -255v-359q0 -41 10.5 -70t40.5 -61h-305z" />
<glyph unicode="s" horiz-adv-x="827" d="M0 719q0 63 34.5 113t88.5 77.5t111.5 41.5t111.5 14q46 0 86.5 -10.5t66.5 -22t53.5 -20t61.5 -4t76 25.5v-250q-40 0 -76.5 24.5t-65 60l-57 71t-65 61t-76.5 27.5q-61 0 -90 -38t-29 -89q0 -42 28.5 -78.5t74.5 -63.5t102 -52.5t111.5 -51.5t101.5 -54.5t74.5 -67.5 t28.5 -85q0 -64 -33 -115t-85.5 -80t-110.5 -44t-115 -15q-54 0 -114 18t-99 35q-35 15 -80 15h-11q-52 -2 -102 -35v250q53 0 100.5 -24.5t82.5 -60t67.5 -71t70.5 -61t78 -27.5q62 0 90.5 37.5t28.5 89.5q0 40 -28.5 74t-74.5 59.5t-101.5 49.5t-111 50.5t-101.5 57 t-74.5 73.5t-28.5 95z" />
<glyph unicode="t" horiz-adv-x="589" d="M0 930v35q250 19 258 290h41v-290h168v-35h-168v-496v-25q0 -131 19 -201q21 -78 83 -77q40 0 60 18t33 50h38q0 -1 -3 -11t-5.5 -15.5t-8.5 -16.5t-13 -18t-19.5 -16.5t-27.5 -14.5t-36.5 -9t-47.5 -4q-138 0 -206.5 78t-68.5 207v551h-96z" />
<glyph unicode="u" horiz-adv-x="911" d="M0 965h254v-551q0 -118 42.5 -200.5t129.5 -82.5q79 0 162 78v627q0 41 -10 69.5t-39 59.5h303q-30 -31 -40.5 -60t-10.5 -69v-611q0 -40 10.5 -69.5t40.5 -61.5h-254v70q-84 -70 -185 -70q-72 0 -134.5 23t-112 68.5t-78.5 121t-29 172.5v357q0 41 -10 69.5t-39 59.5z " />
<glyph unicode="v" horiz-adv-x="954" d="M0 965h297q-19 -17 -21 -41q0 -4 -1 -8q0 -22 10 -56l221 -629l178 605q6 18 7 33t-4.5 27.5t-10.5 21t-18.5 19t-20.5 14.5t-23 14h256q-130 -52 -151 -129q-193 -646 -197 -654q12 -31 26 -49.5t42 -38.5h-291q20 22 20 51t-20 86q-231 646 -233 648q-17 45 -60 82 q-4 4 -6 4z" />
<glyph unicode="w" horiz-adv-x="1277" d="M0 965h297q-19 -17 -21 -41q0 -4 -1 -8q0 -22 10 -56l221 -629l57 195l-162 453q-20 47 -61 82q-4 4 -6 4h297q-21 -21 -21 -56q0 -22 8 -49l222 -629l180 605q6 18 6.5 33t-5.5 27.5t-11 21t-18.5 19t-20.5 14.5t-23 14h258q-130 -52 -153 -129l-183 -611l-12 -43 q10 -30 24.5 -48.5t41.5 -39.5h-291q20 22 20 51t-20 86q-20 60 -51 144l-45 -150q-10 -33 -15 -43q12 -31 26 -49.5t42 -38.5h-291q20 22 20 51t-20 86q-231 646 -233 648q-17 45 -60 82q-4 4 -6 4z" />
<glyph unicode="x" horiz-adv-x="913" d="M2 965h385q-33 -19 -40 -43q-2 -7 -2 -15q0 -21 13 -51l150 -270l127 248q13 23 14.5 41.5t-9 34.5t-24.5 27.5t-38 27.5h262q-71 -29 -106 -54t-60 -77l-144 -287l177 -316q32 -62 56 -87t85 -50h-385q42 24 42 55q0 29 -30 82q-63 113 -137 244l-125 -248 q-13 -24 -14.5 -42.5t9.5 -34.5t23.5 -27t38.5 -29h-262q37 16 55.5 25.5t42 25t38.5 35t28 47.5l145 285q-200 367 -204 367q-18 27 -41 45t-62 37z" />
<glyph unicode="y" horiz-adv-x="1034" d="M2 965h393q-37 -18 -47 -41q-5 -10 -5 -23q0 -18 7 -41l232 -491l174 467q7 18 7.5 33.5t-5.5 28t-12 21.5t-19.5 18.5t-22 14.5t-24.5 13h262q-121 -40 -154 -129l-274 -742q-3 -8 -8.5 -22.5t-23 -56.5t-36.5 -80t-47.5 -84.5t-56.5 -80t-63.5 -56.5t-69.5 -23h-2 q-43 0 -93 16q-40 13 -80 13l-20 -1l21 250q43 -15 87 -50t70.5 -63t60.5 -42q15 -6 29 -6q18 0 34 10q30 18 72 85t93 191h-4q-366 783 -368 785q-17 27 -38.5 45t-60.5 37z" />
<glyph unicode="z" horiz-adv-x="843" d="M0 96l453 834h-15q-72 0 -131.5 -22t-98.5 -53t-72 -62.5t-67.5 -53.5t-68.5 -22v248q50 -17 144 -17t162 8l69 9h358l-452 -834h14q71 0 130.5 22t98.5 53.5t72 62.5t67.5 53t69.5 22v-248q-50 17 -144 17t-163 -9l-68 -8h-358z" />
<glyph unicode="&#x2000;" horiz-adv-x="686" />
<glyph unicode="&#x2001;" horiz-adv-x="1372" />
<glyph unicode="&#x2002;" horiz-adv-x="686" />
<glyph unicode="&#x2003;" horiz-adv-x="1372" />
<glyph unicode="&#x2004;" horiz-adv-x="457" />
<glyph unicode="&#x2005;" horiz-adv-x="343" />
<glyph unicode="&#x2006;" horiz-adv-x="228" />
<glyph unicode="&#x2007;" horiz-adv-x="228" />
<glyph unicode="&#x2008;" horiz-adv-x="171" />
<glyph unicode="&#x2009;" horiz-adv-x="274" />
<glyph unicode="&#x200a;" horiz-adv-x="76" />
<glyph unicode="&#x202f;" horiz-adv-x="274" />
<glyph unicode="&#x205f;" horiz-adv-x="343" />
<glyph unicode="&#x25fc;" horiz-adv-x="962" d="M0 0v963h963v-963h-963z" />
</font>
</defs>
</svg>
