<svg width="122" height="91" viewBox="0 0 122 91" fill="none" xmlns="http://www.w3.org/2000/svg">
<mask id="path-1-outside-1_48_688" maskUnits="userSpaceOnUse" x="-2" y="-2" width="126" height="95" fill="black">
<rect fill="white" x="-2" y="-2" width="126" height="95"/>
<path d="M0.125 1.49999H18.625C32.375 1.49999 39.75 9.25 39.75 23.625V25.25C39.75 35 36.875 40.75 29.875 43.125V43.375C38.125 45.875 41.625 52.375 41.625 63.875V66.875C41.625 81.25 33.875 89 19.625 89H0.125V1.49999ZM13.375 13.75V37.625H17.5C23.875 37.625 26.5 34.375 26.5 27V24.125C26.5 17 23.875 13.75 18.125 13.75H13.375ZM13.375 49.875V76.75H19.125C25.5 76.75 28.375 73.375 28.375 66V61.125C28.375 53.375 25.5 49.875 18.5 49.875H13.375ZM65.499 89H52.249V1.49999H65.499V89ZM99.7148 0.249995C112.965 0.249995 121.09 8.625 121.09 22.375V68.125C121.09 81.875 112.965 90.25 99.7148 90.25C86.4648 90.25 78.3398 81.875 78.3398 68.125V22.375C78.3398 8.625 86.4648 0.249995 99.7148 0.249995ZM99.7148 12.5C94.4648 12.5 91.5898 16 91.5898 22.5V68C91.5898 74.5 94.4648 78 99.7148 78C104.965 78 107.84 74.5 107.84 68V22.5C107.84 16 104.965 12.5 99.7148 12.5Z"/>
</mask>
<path d="M0.125 1.49999V-0.500006H-1.875V1.49999H0.125ZM29.875 43.125L29.2324 41.231L27.875 41.6916V43.125H29.875ZM29.875 43.375H27.875V44.8587L29.295 45.289L29.875 43.375ZM0.125 89H-1.875V91H0.125V89ZM13.375 13.75V11.75H11.375V13.75H13.375ZM13.375 37.625H11.375V39.625H13.375V37.625ZM13.375 49.875V47.875H11.375V49.875H13.375ZM13.375 76.75H11.375V78.75H13.375V76.75ZM0.125 3.49999H18.625V-0.500006H0.125V3.49999ZM18.625 3.49999C25.129 3.49999 29.8177 5.32495 32.8966 8.55239C35.9903 11.7953 37.75 16.7586 37.75 23.625H41.75C41.75 16.1164 39.8222 10.0172 35.7909 5.79135C31.7448 1.55004 25.871 -0.500006 18.625 -0.500006V3.49999ZM37.75 23.625V25.25H41.75V23.625H37.75ZM37.75 25.25C37.75 29.9619 37.0495 33.461 35.6775 36.0033C34.345 38.4723 32.2984 40.1908 29.2324 41.231L30.5176 45.019C34.4516 43.6842 37.3425 41.3402 39.1975 37.903C41.0131 34.539 41.75 30.2881 41.75 25.25H37.75ZM27.875 43.125V43.375H31.875V43.125H27.875ZM29.295 45.289C32.9883 46.4082 35.4787 48.359 37.1023 51.2336C38.7691 54.1846 39.625 58.2921 39.625 63.875H43.625C43.625 57.9579 42.7309 53.0654 40.5852 49.2664C38.3963 45.391 35.0117 42.8418 30.455 41.461L29.295 45.289ZM39.625 63.875V66.875H43.625V63.875H39.625ZM39.625 66.875C39.625 73.716 37.7855 78.6694 34.5516 81.9169C31.3189 85.1631 26.399 87 19.625 87V91C27.101 91 33.1811 88.9619 37.3859 84.7394C41.5895 80.5181 43.625 74.409 43.625 66.875H39.625ZM19.625 87H0.125V91H19.625V87ZM2.125 89V1.49999H-1.875V89H2.125ZM11.375 13.75V37.625H15.375V13.75H11.375ZM13.375 39.625H17.5V35.625H13.375V39.625ZM17.5 39.625C21.0083 39.625 23.9455 38.7236 25.9237 36.3626C27.8307 34.0864 28.5 30.8474 28.5 27H24.5C24.5 30.5276 23.8568 32.6011 22.8576 33.7937C21.9295 34.9014 20.3667 35.625 17.5 35.625V39.625ZM28.5 27V24.125H24.5V27H28.5ZM28.5 24.125C28.5 20.3847 27.8237 17.2374 26.0249 15.0093C24.1497 12.6866 21.3823 11.75 18.125 11.75V15.75C20.6177 15.75 22.0378 16.4384 22.9126 17.522C23.8638 18.7001 24.5 20.7403 24.5 24.125H28.5ZM18.125 11.75H13.375V15.75H18.125V11.75ZM11.375 49.875V76.75H15.375V49.875H11.375ZM13.375 78.75H19.125V74.75H13.375V78.75ZM19.125 78.75C22.654 78.75 25.6292 77.807 27.6582 75.4433C29.6291 73.1473 30.375 69.8843 30.375 66H26.375C26.375 69.4907 25.6834 71.6027 24.6231 72.8379C23.6208 74.0055 21.971 74.75 19.125 74.75V78.75ZM30.375 66V61.125H26.375V66H30.375ZM30.375 61.125C30.375 57.0751 29.6378 53.6715 27.5756 51.2858C25.4543 48.8318 22.3089 47.875 18.5 47.875V51.875C21.6911 51.875 23.4832 52.6682 24.5494 53.9017C25.6747 55.2035 26.375 57.4249 26.375 61.125H30.375ZM18.5 47.875H13.375V51.875H18.5V47.875ZM65.499 89V91H67.499V89H65.499ZM52.249 89H50.249V91H52.249V89ZM52.249 1.49999V-0.500006H50.249V1.49999H52.249ZM65.499 1.49999H67.499V-0.500006H65.499V1.49999ZM65.499 87H52.249V91H65.499V87ZM54.249 89V1.49999H50.249V89H54.249ZM52.249 3.49999H65.499V-0.500006H52.249V3.49999ZM63.499 1.49999V89H67.499V1.49999H63.499ZM99.7148 2.25C105.91 2.25 110.694 4.19753 113.934 7.5467C117.181 10.9038 119.09 15.8916 119.09 22.375H123.09C123.09 15.1084 120.937 9.03371 116.809 4.7658C112.673 0.489962 106.77 -1.75 99.7148 -1.75V2.25ZM119.09 22.375V68.125H123.09V22.375H119.09ZM119.09 68.125C119.09 74.6084 117.181 79.5962 113.934 82.9533C110.694 86.3025 105.91 88.25 99.7148 88.25V92.25C106.77 92.25 112.673 90.01 116.809 85.7342C120.937 81.4663 123.09 75.3916 123.09 68.125H119.09ZM99.7148 88.25C93.5199 88.25 88.7355 86.3025 85.4962 82.9533C82.2492 79.5962 80.3398 74.6084 80.3398 68.125H76.3398C76.3398 75.3916 78.493 81.4663 82.621 85.7342C86.7567 90.01 92.6598 92.25 99.7148 92.25V88.25ZM80.3398 68.125V22.375H76.3398V68.125H80.3398ZM80.3398 22.375C80.3398 15.8916 82.2492 10.9038 85.4962 7.5467C88.7355 4.19753 93.5199 2.25 99.7148 2.25V-1.75C92.6598 -1.75 86.7567 0.489962 82.621 4.7658C78.493 9.03371 76.3398 15.1084 76.3398 22.375H80.3398ZM99.7148 10.5C96.6133 10.5 93.9603 11.5567 92.1331 13.7991C90.3603 15.9749 89.5898 18.9939 89.5898 22.5H93.5898C93.5898 19.5061 94.2569 17.5251 95.2341 16.3258C96.1569 15.1932 97.5664 14.5 99.7148 14.5V10.5ZM89.5898 22.5V68H93.5898V22.5H89.5898ZM89.5898 68C89.5898 71.5061 90.3603 74.5251 92.1331 76.7008C93.9603 78.9433 96.6133 80 99.7148 80V76C97.5664 76 96.1569 75.3067 95.2341 74.1742C94.2569 72.9749 93.5898 70.9939 93.5898 68H89.5898ZM99.7148 80C102.816 80 105.469 78.9433 107.297 76.7008C109.069 74.5251 109.84 71.5061 109.84 68H105.84C105.84 70.9939 105.173 72.9749 104.196 74.1742C103.273 75.3067 101.863 76 99.7148 76V80ZM109.84 68V22.5H105.84V68H109.84ZM109.84 22.5C109.84 18.9939 109.069 15.9749 107.297 13.7991C105.469 11.5567 102.816 10.5 99.7148 10.5V14.5C101.863 14.5 103.273 15.1932 104.196 16.3258C105.173 17.5251 105.84 19.5061 105.84 22.5H109.84Z" fill="#ADFF2F" mask="url(#path-1-outside-1_48_688)"/>
</svg>
