<svg xmlns="http://www.w3.org/2000/svg" xmlns:xlink="http://www.w3.org/1999/xlink" width="1080" zoomAndPan="magnify" viewBox="0 0 810 1439.999935" height="1920" preserveAspectRatio="xMidYMid meet" version="1.0"><path fill="#00c853" d="M 395.695312 544.265625 C 401.453125 541.035156 408.546875 541.035156 414.296875 544.265625 C 442.761719 560.230469 528.410156 608.28125 556.882812 624.242188 C 562.640625 627.464844 566.1875 633.433594 566.1875 639.894531 C 566.1875 671.820312 566.1875 767.910156 566.1875 799.835938 C 566.1875 806.296875 562.640625 812.265625 556.882812 815.496094 C 528.417969 831.457031 442.769531 879.507812 414.296875 895.472656 C 408.539062 898.703125 401.445312 898.703125 395.695312 895.472656 C 367.230469 879.507812 281.582031 831.457031 253.109375 815.496094 C 247.359375 812.265625 243.8125 806.304688 243.8125 799.847656 C 243.8125 767.917969 243.8125 671.828125 243.8125 639.902344 C 243.8125 633.441406 247.359375 627.472656 253.117188 624.242188 C 281.570312 608.28125 367.238281 560.230469 395.695312 544.265625 Z M 395.695312 544.265625 " fill-opacity="1" fill-rule="nonzero"/><path fill="#69f0ae" d="M 246.390625 808.070312 C 244.132812 805.050781 243.8125 802.1875 243.8125 798.328125 C 243.8125 766.589844 243.8125 671.046875 243.8125 639.300781 C 243.8125 632.875 247.347656 626.9375 253.09375 623.734375 C 281.453125 607.863281 366.816406 560.09375 395.175781 544.214844 C 400.917969 541.003906 408.699219 541.070312 414.441406 544.285156 C 442.804688 560.152344 527.875 607.515625 556.238281 623.386719 C 558.527344 624.675781 560.273438 626.226562 561.835938 628.269531 Z M 246.390625 808.070312 " fill-opacity="1" fill-rule="nonzero"/><path fill="#ffffff" d="M 405 601.183594 C 339.421875 601.183594 286.230469 654.339844 286.230469 719.871094 C 286.230469 785.402344 339.421875 838.554688 405 838.554688 C 470.578125 838.554688 523.769531 785.402344 523.769531 719.871094 C 523.769531 654.339844 470.578125 601.183594 405 601.183594 Z M 405 779.210938 C 372.253906 779.210938 345.613281 752.59375 345.613281 719.871094 C 345.613281 687.144531 372.253906 660.527344 405 660.527344 C 437.746094 660.527344 464.386719 687.144531 464.386719 719.871094 C 464.386719 752.59375 437.746094 779.210938 405 779.210938 Z M 405 779.210938 " fill-opacity="1" fill-rule="nonzero"/><path fill="#00e676" d="M 561.820312 628.355469 C 566.195312 632.449219 566.113281 638.621094 566.113281 643.480469 C 566.113281 675.652344 565.839844 767.15625 566.1875 799.328125 C 566.222656 802.6875 565.109375 806.222656 563.449219 808.882812 L 401.546875 719.871094 Z M 561.820312 628.355469 " fill-opacity="1" fill-rule="nonzero"/><path fill="#ffffff" d="M 489.835938 685.960938 L 498.320312 685.960938 L 498.320312 753.78125 L 489.835938 753.78125 Z M 515.285156 685.960938 L 523.769531 685.960938 L 523.769531 753.78125 L 515.285156 753.78125 Z M 515.285156 685.960938 " fill-opacity="1" fill-rule="nonzero"/><path fill="#ffffff" d="M 472.867188 728.347656 L 540.738281 728.347656 L 540.738281 736.824219 L 472.867188 736.824219 Z M 472.867188 702.914062 L 540.738281 702.914062 L 540.738281 711.390625 L 472.867188 711.390625 Z M 472.867188 702.914062 " fill-opacity="1" fill-rule="nonzero"/></svg>