<svg xmlns="http://www.w3.org/2000/svg" xmlns:xlink="http://www.w3.org/1999/xlink" width="1080" zoomAndPan="magnify" viewBox="0 0 810 1439.999935" height="1920" preserveAspectRatio="xMidYMid meet" version="1.0"><defs><clipPath id="93733d99f2"><path d="M 243 581 L 567 581 L 567 948.289062 L 243 948.289062 Z M 243 581 " clip-rule="nonzero"/></clipPath><clipPath id="08302a5ee9"><path d="M 319 491.539062 L 369 491.539062 L 369 554 L 319 554 Z M 319 491.539062 " clip-rule="nonzero"/></clipPath><clipPath id="703f016ceb"><path d="M 378 491.539062 L 428 491.539062 L 428 554 L 378 554 Z M 378 491.539062 " clip-rule="nonzero"/></clipPath><clipPath id="0fb87c372e"><path d="M 437 491.539062 L 487 491.539062 L 487 554 L 437 554 Z M 437 491.539062 " clip-rule="nonzero"/></clipPath></defs><g clip-path="url(#93733d99f2)"><path fill="#264de4" d="M 404.859375 948.277344 L 272.671875 911.59375 L 243.214844 581.304688 L 566.898438 581.296875 L 537.425781 911.539062 L 404.867188 948.269531 Z M 404.859375 948.277344 " fill-opacity="1" fill-rule="nonzero"/></g><path fill="#2965f1" d="M 512.179688 890.511719 L 537.378906 608.308594 L 405.0625 608.304688 L 405.0625 920.191406 L 512.179688 890.507812 Z M 512.179688 890.511719 " fill-opacity="1" fill-rule="nonzero"/><path fill="#ebebeb" d="M 310.75 730.808594 L 314.378906 771.308594 L 405.0625 771.308594 L 405.0625 730.808594 Z M 310.75 730.808594 " fill-opacity="1" fill-rule="nonzero"/><path fill="#ebebeb" d="M 303.449219 648.808594 L 307.132812 689.320312 L 405.0625 689.320312 L 405.0625 648.808594 Z M 303.449219 648.808594 " fill-opacity="1" fill-rule="nonzero"/><path fill="#ebebeb" d="M 405.0625 836.011719 L 404.886719 836.058594 L 359.753906 823.871094 L 356.871094 791.566406 L 316.191406 791.566406 L 321.867188 855.175781 L 404.875 878.210938 L 405.0625 878.160156 Z M 405.0625 836.011719 " fill-opacity="1" fill-rule="nonzero"/><g clip-path="url(#08302a5ee9)"><path fill="#000000" d="M 319.394531 491.539062 L 368.476562 491.539062 L 368.476562 512.054688 L 339.917969 512.054688 L 339.917969 532.574219 L 368.476562 532.574219 L 368.476562 553.089844 L 319.394531 553.089844 Z M 319.394531 491.539062 " fill-opacity="1" fill-rule="nonzero"/></g><g clip-path="url(#703f016ceb)"><path fill="#000000" d="M 378.289062 491.539062 L 427.371094 491.539062 L 427.371094 509.378906 L 398.820312 509.378906 L 398.820312 512.949219 L 427.371094 512.949219 L 427.371094 553.984375 L 378.289062 553.984375 L 378.289062 535.25 L 406.851562 535.25 L 406.851562 531.679688 L 378.289062 531.679688 Z M 378.289062 491.539062 " fill-opacity="1" fill-rule="nonzero"/></g><g clip-path="url(#0fb87c372e)"><path fill="#000000" d="M 437.191406 491.539062 L 486.269531 491.539062 L 486.269531 509.378906 L 457.707031 509.378906 L 457.707031 512.949219 L 486.269531 512.949219 L 486.269531 553.984375 L 437.191406 553.984375 L 437.191406 535.25 L 465.738281 535.25 L 465.738281 531.679688 L 437.191406 531.679688 Z M 437.191406 491.539062 " fill-opacity="1" fill-rule="nonzero"/></g><path fill="#ffffff" d="M 499.125 730.808594 L 506.433594 648.808594 L 404.925781 648.808594 L 404.925781 689.320312 L 462.023438 689.320312 L 458.34375 730.808594 L 404.925781 730.808594 L 404.925781 771.308594 L 454.828125 771.308594 L 450.121094 823.847656 L 404.925781 836.046875 L 404.925781 878.183594 L 487.996094 855.175781 L 488.605469 848.324219 L 498.132812 741.679688 Z M 499.125 730.808594 " fill-opacity="1" fill-rule="nonzero"/></svg>