<svg xmlns="http://www.w3.org/2000/svg" xmlns:xlink="http://www.w3.org/1999/xlink" width="1080" zoomAndPan="magnify" viewBox="0 0 810 1439.999935" height="1920" preserveAspectRatio="xMidYMid meet" version="1.0"><defs><clipPath id="5c188147f5"><path d="M 243 581 L 567 581 L 567 948.289062 L 243 948.289062 Z M 243 581 " clip-rule="nonzero"/></clipPath><clipPath id="815a9e7b87"><path d="M 273 491.539062 L 334 491.539062 L 334 554 L 273 554 Z M 273 491.539062 " clip-rule="nonzero"/></clipPath><clipPath id="5bd1f608f1"><path d="M 342 491.539062 L 400 491.539062 L 400 554 L 342 554 Z M 342 491.539062 " clip-rule="nonzero"/></clipPath><clipPath id="b3ff9c3c86"><path d="M 408 491.539062 L 478 491.539062 L 478 554 L 408 554 Z M 408 491.539062 " clip-rule="nonzero"/></clipPath><clipPath id="62e130b029"><path d="M 487 491.539062 L 538 491.539062 L 538 554 L 487 554 Z M 487 491.539062 " clip-rule="nonzero"/></clipPath></defs><g clip-path="url(#5c188147f5)"><path fill="#e44d26" d="M 566.90625 581.296875 L 537.417969 911.539062 L 404.859375 948.269531 L 272.671875 911.589844 L 243.214844 581.296875 L 566.898438 581.292969 L 566.910156 581.292969 Z M 566.90625 581.296875 " fill-opacity="1" fill-rule="nonzero"/></g><path fill="#f16529" d="M 405.0625 920.195312 L 512.179688 890.511719 L 537.378906 608.308594 L 405.0625 608.304688 Z M 405.0625 920.195312 " fill-opacity="1" fill-rule="nonzero"/><path fill="#ebebeb" d="M 347.738281 689.320312 L 405.0625 689.320312 L 405.0625 648.808594 L 303.449219 648.808594 L 304.417969 659.675781 L 314.378906 771.308594 L 405.0625 771.308594 L 405.0625 730.808594 L 351.441406 730.808594 Z M 347.738281 689.320312 " fill-opacity="1" fill-rule="nonzero"/><path fill="#ebebeb" d="M 356.871094 791.566406 L 316.191406 791.566406 L 321.867188 855.175781 L 404.875 878.210938 L 405.0625 878.160156 L 405.0625 836.011719 L 404.886719 836.058594 L 359.753906 823.871094 Z M 356.871094 791.566406 " fill-opacity="1" fill-rule="nonzero"/><g clip-path="url(#815a9e7b87)"><path fill="#000000" d="M 273.332031 491.539062 L 293.925781 491.539062 L 293.925781 511.878906 L 312.761719 511.878906 L 312.761719 491.539062 L 333.359375 491.539062 L 333.359375 553.128906 L 312.765625 553.128906 L 312.765625 532.503906 L 293.925781 532.503906 L 293.925781 553.128906 L 273.332031 553.128906 Z M 273.332031 491.539062 " fill-opacity="1" fill-rule="nonzero"/></g><g clip-path="url(#5bd1f608f1)"><path fill="#000000" d="M 360.4375 511.964844 L 342.308594 511.964844 L 342.308594 491.539062 L 399.175781 491.539062 L 399.175781 511.964844 L 381.03125 511.964844 L 381.03125 553.128906 L 360.441406 553.128906 L 360.441406 511.964844 Z M 360.4375 511.964844 " fill-opacity="1" fill-rule="nonzero"/></g><g clip-path="url(#b3ff9c3c86)"><path fill="#000000" d="M 408.199219 491.539062 L 429.667969 491.539062 L 442.875 513.179688 L 456.070312 491.539062 L 477.554688 491.539062 L 477.554688 553.128906 L 457.046875 553.128906 L 457.046875 522.601562 L 442.875 544.5 L 442.519531 544.5 L 428.347656 522.601562 L 428.347656 553.128906 L 408.199219 553.128906 Z M 408.199219 491.539062 " fill-opacity="1" fill-rule="nonzero"/></g><g clip-path="url(#62e130b029)"><path fill="#000000" d="M 487.804688 491.539062 L 508.398438 491.539062 L 508.398438 532.769531 L 537.367188 532.769531 L 537.367188 553.128906 L 487.804688 553.128906 Z M 487.804688 491.539062 " fill-opacity="1" fill-rule="nonzero"/></g><path fill="#ffffff" d="M 404.925781 771.308594 L 454.828125 771.308594 L 450.121094 823.847656 L 404.925781 836.046875 L 404.925781 878.183594 L 487.996094 855.175781 L 488.605469 848.324219 L 498.132812 741.679688 L 499.125 730.808594 L 404.925781 730.808594 Z M 404.925781 771.308594 " fill-opacity="1" fill-rule="nonzero"/><path fill="#ffffff" d="M 404.925781 689.21875 L 404.925781 689.320312 L 502.804688 689.320312 L 503.617188 680.210938 L 505.46875 659.675781 L 506.433594 648.808594 L 404.925781 648.808594 Z M 404.925781 689.21875 " fill-opacity="1" fill-rule="nonzero"/></svg>