<svg xmlns="http://www.w3.org/2000/svg" xmlns:xlink="http://www.w3.org/1999/xlink" width="1080" zoomAndPan="magnify" viewBox="0 0 810 1439.999935" height="1920" preserveAspectRatio="xMidYMid meet" version="1.0"><path fill="#ffd600" d="M 243 558 L 567 558 L 567 882 L 243 882 Z M 243 558 " fill-opacity="1" fill-rule="nonzero"/><path fill="#000001" d="M 454.84375 800.523438 C 461.070312 810.640625 467.839844 820.332031 482.175781 820.332031 C 494.21875 820.332031 500.535156 814.347656 500.535156 806.066406 C 500.535156 796.15625 494 792.640625 480.753906 786.871094 L 473.488281 783.773438 C 452.527344 774.882812 438.589844 763.738281 438.589844 740.203125 C 438.589844 718.515625 455.191406 702.007812 481.140625 702.007812 C 499.617188 702.007812 512.890625 708.40625 522.46875 725.164062 L 499.84375 739.628906 C 494.863281 730.738281 489.484375 727.234375 481.140625 727.234375 C 472.625 727.234375 467.234375 732.609375 467.234375 739.628906 C 467.234375 748.304688 472.636719 751.816406 485.101562 757.1875 L 492.363281 760.285156 C 517.066406 770.804688 531 781.550781 531 805.707031 C 531 831.734375 510.445312 846 482.851562 846 C 455.859375 846 440.53125 832.453125 432 815.6875 Z M 350.566406 801.261719 C 355.121094 809.414062 362.042969 815.6875 371.996094 815.6875 C 381.519531 815.6875 387 811.925781 387 797.300781 L 387 702 L 416.996094 702 L 416.996094 801.910156 C 416.996094 832.210938 399.421875 846 373.753906 846 C 350.558594 846 333.820312 830.285156 326.996094 815.6875 Z M 350.566406 801.261719 " fill-opacity="1" fill-rule="nonzero"/></svg>