<svg xmlns="http://www.w3.org/2000/svg" xmlns:xlink="http://www.w3.org/1999/xlink" width="1080" zoomAndPan="magnify" viewBox="0 0 810 1439.999935" height="1920" preserveAspectRatio="xMidYMid meet" version="1.0"><defs><clipPath id="9a2cc789fd"><path d="M 411 656.011719 L 486 656.011719 L 486 784 L 411 784 Z M 411 656.011719 " clip-rule="nonzero"/></clipPath></defs><path fill="#388e3c" d="M 359.46875 703.832031 L 326.589844 722.0625 C 325.359375 722.738281 324.601562 724.003906 324.601562 725.367188 L 324.601562 761.847656 C 324.601562 763.210938 325.359375 764.464844 326.589844 765.148438 L 359.472656 783.394531 C 360.699219 784.070312 362.222656 784.070312 363.445312 783.394531 L 396.324219 765.148438 C 397.542969 764.464844 398.300781 763.210938 398.300781 761.847656 L 398.300781 725.367188 C 398.300781 724.003906 397.542969 722.746094 396.308594 722.0625 L 363.441406 703.832031 C 362.824219 703.488281 362.132812 703.320312 361.449219 703.320312 C 360.761719 703.320312 360.078125 703.488281 359.460938 703.832031 M 528.621094 736.671875 L 523.140625 739.707031 C 522.933594 739.824219 522.8125 740.03125 522.8125 740.257812 L 522.8125 746.34375 C 522.8125 746.570312 522.9375 746.777344 523.140625 746.894531 L 528.621094 749.933594 C 528.828125 750.046875 529.074219 750.046875 529.285156 749.933594 L 534.765625 746.894531 C 534.964844 746.777344 535.09375 746.570312 535.09375 746.34375 L 535.09375 740.257812 C 535.09375 740.03125 534.964844 739.824219 534.757812 739.707031 L 529.277344 736.671875 C 529.175781 736.613281 529.0625 736.585938 528.949219 736.585938 C 528.835938 736.585938 528.722656 736.613281 528.621094 736.671875 " fill-opacity="1" fill-rule="nonzero"/><g clip-path="url(#9a2cc789fd)"><path fill="#37474f" d="M 483.730469 665.167969 L 467.726562 656.21875 C 467.222656 655.9375 466.605469 655.941406 466.109375 656.238281 C 465.613281 656.535156 465.304688 657.0625 465.304688 657.640625 L 465.300781 711.707031 L 450.539062 703.523438 C 449.921875 703.179688 449.234375 703.011719 448.550781 703.011719 C 447.867188 703.011719 447.175781 703.179688 446.558594 703.523438 L 446.566406 703.523438 L 413.691406 721.753906 C 412.457031 722.429688 411.699219 723.695312 411.699219 725.050781 L 411.699219 761.53125 C 411.699219 762.894531 412.457031 764.148438 413.691406 764.835938 L 446.574219 783.078125 C 447.800781 783.757812 449.320312 783.757812 450.546875 783.078125 L 483.421875 764.835938 C 484.640625 764.15625 485.398438 762.894531 485.398438 761.53125 L 485.398438 668.015625 C 485.398438 666.832031 484.757812 665.746094 483.730469 665.167969 Z M 464.402344 753.089844 L 449.460938 761.382812 C 448.90625 761.691406 448.214844 761.691406 447.660156 761.382812 L 432.710938 753.089844 C 432.140625 752.78125 431.800781 752.203125 431.800781 751.585938 L 431.800781 735 C 431.800781 734.382812 432.140625 733.8125 432.703125 733.496094 L 447.652344 725.210938 L 447.644531 725.210938 C 447.925781 725.058594 448.234375 724.984375 448.550781 724.984375 C 448.863281 724.984375 449.171875 725.0625 449.453125 725.210938 L 464.394531 733.496094 C 464.957031 733.8125 465.300781 734.390625 465.300781 735.007812 L 465.300781 751.59375 C 465.300781 752.203125 464.957031 752.78125 464.402344 753.089844 Z M 464.402344 753.089844 " fill-opacity="1" fill-rule="nonzero"/></g><path fill="#2e7d32" d="M 359.46875 703.832031 L 324.601562 761.847656 C 324.601562 763.210938 325.359375 764.464844 326.589844 765.148438 L 359.472656 783.394531 C 360.699219 784.070312 362.222656 784.070312 363.445312 783.394531 L 398.300781 725.367188 C 398.300781 724.003906 397.542969 722.746094 396.308594 722.0625 L 363.441406 703.832031 C 362.824219 703.488281 362.132812 703.320312 361.449219 703.320312 C 360.761719 703.320312 360.078125 703.488281 359.460938 703.832031 " fill-opacity="1" fill-rule="nonzero"/><path fill="#4caf50" d="M 359.46875 703.832031 L 326.589844 722.0625 C 325.359375 722.738281 324.601562 724.003906 324.601562 725.367188 L 359.46875 783.394531 C 360.691406 784.070312 362.214844 784.070312 363.441406 783.394531 L 396.316406 765.148438 C 397.542969 764.464844 398.300781 763.210938 398.300781 761.847656 L 363.441406 703.832031 C 362.824219 703.488281 362.132812 703.320312 361.449219 703.320312 C 360.761719 703.320312 360.078125 703.488281 359.460938 703.832031 " fill-opacity="1" fill-rule="nonzero"/><path fill="#37474f" d="M 563.808594 721.753906 L 530.9375 703.523438 C 530.320312 703.179688 529.632812 703.011719 528.949219 703.011719 C 528.265625 703.011719 527.574219 703.179688 526.957031 703.523438 L 526.964844 703.523438 L 494.089844 721.753906 C 492.863281 722.429688 492.097656 723.71875 492.097656 725.128906 L 492.097656 761.464844 C 492.097656 762.867188 492.863281 764.164062 494.089844 764.839844 L 526.972656 783.085938 C 528.203125 783.769531 529.710938 783.769531 530.945312 783.085938 L 546.105469 774.671875 C 547.496094 773.898438 547.488281 771.90625 546.09375 771.140625 L 513.101562 753.097656 C 512.546875 752.78125 512.199219 752.199219 512.199219 751.566406 L 512.199219 735.007812 C 512.199219 734.390625 512.535156 733.820312 513.070312 733.523438 L 528.042969 725.226562 L 528.039062 725.226562 C 528.320312 725.070312 528.628906 724.996094 528.941406 724.996094 C 529.257812 724.996094 529.566406 725.078125 529.847656 725.226562 L 544.820312 733.53125 C 545.355469 733.824219 545.691406 734.398438 545.691406 735.015625 L 545.691406 748.523438 C 545.691406 749.101562 546 749.640625 546.503906 749.929688 C 547.003906 750.210938 547.621094 750.210938 548.125 749.921875 L 564.191406 740.566406 C 565.183594 739.988281 565.796875 738.921875 565.796875 737.769531 L 565.796875 725.144531 C 565.796875 723.726562 565.035156 722.429688 563.808594 721.753906 Z M 315.910156 721.753906 L 283.042969 703.523438 C 282.425781 703.179688 281.734375 703.011719 281.050781 703.011719 C 280.367188 703.011719 279.675781 703.179688 279.0625 703.523438 L 279.066406 703.523438 L 246.191406 721.753906 C 244.964844 722.429688 244.203125 723.71875 244.203125 725.128906 L 244.203125 775.253906 C 244.203125 775.832031 244.507812 776.371094 245.011719 776.660156 C 245.515625 776.941406 246.132812 776.941406 246.632812 776.652344 L 262.699219 767.296875 C 263.691406 766.722656 264.300781 765.652344 264.300781 764.5 L 264.300781 735 C 264.300781 734.382812 264.636719 733.8125 265.171875 733.515625 L 280.148438 725.21875 C 280.429688 725.0625 280.734375 724.988281 281.050781 724.988281 C 281.367188 724.988281 281.675781 725.070312 281.957031 725.21875 L 296.929688 733.523438 C 297.464844 733.820312 297.800781 734.390625 297.800781 735.007812 L 297.800781 764.503906 C 297.800781 765.660156 298.410156 766.726562 299.410156 767.304688 L 315.476562 776.660156 C 315.976562 776.949219 316.59375 776.949219 317.097656 776.664062 C 317.59375 776.371094 317.902344 775.832031 317.902344 775.253906 L 317.902344 725.136719 C 317.902344 723.726562 317.136719 722.429688 315.910156 721.753906 Z M 315.910156 721.753906 " fill-opacity="1" fill-rule="nonzero"/></svg>