<svg xmlns="http://www.w3.org/2000/svg" xmlns:xlink="http://www.w3.org/1999/xlink" width="1080" zoomAndPan="magnify" viewBox="0 0 810 1439.999935" height="1920" preserveAspectRatio="xMidYMid meet" version="1.0"><path fill="#00d8ff" d="M 509.277344 669.246094 C 505.832031 668.066406 502.355469 666.96875 498.851562 665.964844 C 499.441406 663.5625 499.984375 661.1875 500.464844 658.859375 C 508.355469 620.578125 503.195312 589.738281 485.574219 579.585938 C 468.679688 569.851562 441.050781 580 413.144531 604.269531 C 410.394531 606.664062 407.703125 609.128906 405.078125 611.664062 C 403.320312 609.980469 401.53125 608.328125 399.714844 606.710938 C 370.46875 580.761719 341.152344 569.828125 323.550781 580.007812 C 306.671875 589.773438 301.671875 618.765625 308.777344 655.042969 C 309.484375 658.636719 310.28125 662.210938 311.171875 665.761719 C 307.023438 666.941406 303.019531 668.195312 299.1875 669.53125 C 264.898438 681.476562 243 700.195312 243 719.613281 C 243 739.671875 266.507812 759.785156 302.21875 771.984375 C 305.117188 772.96875 308.035156 773.882812 310.976562 774.722656 C 310.019531 778.546875 309.171875 782.398438 308.433594 786.273438 C 301.660156 821.921875 306.949219 850.226562 323.785156 859.929688 C 341.171875 869.949219 370.355469 859.652344 398.769531 834.832031 C 401.074219 832.8125 403.328125 830.738281 405.527344 828.605469 C 408.371094 831.347656 411.289062 834.007812 414.28125 836.589844 C 441.808594 860.253906 468.992188 869.8125 485.808594 860.082031 C 503.179688 850.035156 508.824219 819.628906 501.496094 782.632812 C 500.917969 779.734375 500.269531 776.851562 499.554688 773.984375 C 501.601562 773.375 503.613281 772.75 505.574219 772.101562 C 542.703125 759.8125 566.859375 739.9375 566.859375 719.613281 C 566.859375 700.125 544.253906 681.277344 509.277344 669.246094 Z M 501.226562 758.980469 C 499.453125 759.566406 497.636719 760.128906 495.785156 760.679688 C 491.6875 747.714844 486.15625 733.925781 479.386719 719.683594 C 485.84375 705.777344 491.164062 692.164062 495.148438 679.285156 C 498.460938 680.242188 501.675781 681.253906 504.773438 682.316406 C 534.742188 692.628906 553.023438 707.871094 553.023438 719.613281 C 553.023438 732.125 533.28125 748.363281 501.226562 758.980469 Z M 487.921875 785.316406 C 491.164062 801.675781 491.625 816.464844 489.480469 828.027344 C 487.550781 838.417969 483.671875 845.34375 478.875 848.121094 C 468.671875 854.023438 446.84375 846.351562 423.304688 826.109375 C 420.523438 823.710938 417.808594 821.238281 415.160156 818.6875 C 424.289062 808.714844 433.40625 797.121094 442.308594 784.246094 C 457.964844 782.855469 472.757812 780.585938 486.171875 777.488281 C 486.816406 780.082031 487.402344 782.695312 487.921875 785.316406 Z M 353.410156 847.101562 C 343.4375 850.617188 335.496094 850.71875 330.695312 847.953125 C 320.480469 842.066406 316.234375 819.339844 322.027344 788.851562 C 322.714844 785.25 323.503906 781.667969 324.390625 778.109375 C 337.65625 781.039062 352.339844 783.148438 368.035156 784.421875 C 376.996094 797.019531 386.378906 808.601562 395.835938 818.742188 C 393.824219 820.6875 391.769531 822.578125 389.664062 824.421875 C 377.097656 835.394531 364.507812 843.183594 353.410156 847.101562 Z M 306.695312 758.902344 C 290.90625 753.507812 277.863281 746.5 268.925781 738.851562 C 260.890625 731.976562 256.835938 725.152344 256.835938 719.613281 C 256.835938 707.832031 274.417969 692.800781 303.738281 682.585938 C 307.296875 681.34375 311.023438 680.175781 314.886719 679.078125 C 318.941406 692.25 324.257812 706.023438 330.671875 719.949219 C 324.171875 734.085938 318.78125 748.078125 314.6875 761.40625 C 312.003906 760.636719 309.339844 759.800781 306.695312 758.902344 Z M 322.355469 652.386719 C 316.269531 621.304688 320.3125 597.859375 330.484375 591.972656 C 341.316406 585.707031 365.277344 594.644531 390.527344 617.050781 C 392.175781 618.511719 393.792969 620.007812 395.386719 621.53125 C 385.976562 631.625 376.679688 643.121094 367.796875 655.648438 C 352.566406 657.058594 337.988281 659.324219 324.582031 662.359375 C 323.757812 659.054688 323.015625 655.730469 322.355469 652.386719 Z M 462.054688 686.855469 C 458.886719 681.390625 455.605469 675.996094 452.207031 670.671875 C 462.539062 671.976562 472.4375 673.710938 481.734375 675.828125 C 478.945312 684.769531 475.464844 694.117188 471.371094 703.699219 C 468.378906 698.023438 465.273438 692.410156 462.054688 686.855469 Z M 405.085938 631.410156 C 411.464844 638.320312 417.859375 646.03125 424.144531 654.398438 C 411.390625 653.796875 398.617188 653.796875 385.867188 654.394531 C 392.160156 646.101562 398.605469 638.398438 405.085938 631.410156 Z M 347.75 686.953125 C 344.574219 692.457031 341.523438 698.039062 338.609375 703.6875 C 334.578125 694.136719 331.132812 684.75 328.316406 675.683594 C 337.558594 673.617188 347.410156 671.929688 357.679688 670.648438 C 354.242188 676.003906 350.933594 681.4375 347.75 686.949219 Z M 357.972656 769.566406 C 347.367188 768.382812 337.363281 766.78125 328.125 764.769531 C 330.984375 755.542969 334.507812 745.953125 338.625 736.203125 C 341.554688 741.855469 344.613281 747.4375 347.804688 752.945312 C 351.085938 758.609375 354.484375 764.15625 357.972656 769.566406 Z M 405.46875 808.792969 C 398.910156 801.722656 392.367188 793.902344 385.980469 785.492188 C 392.183594 785.734375 398.503906 785.855469 404.929688 785.855469 C 411.53125 785.855469 418.054688 785.710938 424.480469 785.421875 C 418.171875 793.988281 411.804688 801.820312 405.46875 808.792969 Z M 471.5 735.703125 C 475.832031 745.5625 479.480469 755.101562 482.375 764.171875 C 472.988281 766.3125 462.847656 768.039062 452.167969 769.320312 C 455.589844 763.894531 458.902344 758.40625 462.109375 752.851562 C 465.367188 747.207031 468.5 741.488281 471.5 735.703125 Z M 450.125 745.945312 C 445.21875 754.460938 440.039062 762.8125 434.589844 770.992188 C 424.71875 771.691406 414.824219 772.039062 404.929688 772.035156 C 394.851562 772.035156 385.046875 771.71875 375.609375 771.109375 C 370.015625 762.949219 364.734375 754.578125 359.777344 746.019531 C 354.84375 737.507812 350.234375 728.808594 345.960938 719.945312 C 350.222656 711.078125 354.820312 702.378906 359.738281 693.855469 L 359.734375 693.859375 C 364.652344 685.335938 369.890625 677.003906 375.441406 668.878906 C 385.070312 668.148438 394.945312 667.769531 404.929688 667.769531 C 414.957031 667.769531 424.84375 668.152344 434.472656 668.886719 C 439.96875 677 445.171875 685.304688 450.078125 693.785156 C 455.011719 702.285156 459.667969 710.945312 464.039062 719.75 C 459.714844 728.644531 455.074219 737.378906 450.125 745.945312 Z M 478.664062 591.5625 C 489.507812 597.8125 493.726562 623.015625 486.914062 656.066406 C 486.476562 658.175781 485.988281 660.324219 485.457031 662.5 C 472.019531 659.402344 457.429688 657.097656 442.15625 655.664062 C 433.257812 643 424.035156 631.488281 414.777344 621.523438 C 417.203125 619.1875 419.6875 616.910156 422.226562 614.695312 C 446.136719 593.90625 468.484375 585.695312 478.664062 591.5625 Z M 404.929688 690.714844 C 420.902344 690.714844 433.847656 703.65625 433.847656 719.613281 C 433.847656 735.574219 420.902344 748.511719 404.929688 748.511719 C 388.957031 748.511719 376.011719 735.574219 376.011719 719.613281 C 376.011719 703.65625 388.957031 690.714844 404.929688 690.714844 Z M 404.929688 690.714844 " fill-opacity="1" fill-rule="nonzero"/></svg>