<svg xmlns="http://www.w3.org/2000/svg" xmlns:xlink="http://www.w3.org/1999/xlink" width="200" zoomAndPan="magnify" viewBox="0 0 150 149.999998" height="200" preserveAspectRatio="xMidYMid meet" version="1.0"><defs><g/></defs><g fill="#454543" fill-opacity="1"><g transform="translate(11.998146, 227.265832)"><g><path d="M 107.328125 -156.328125 L 100.828125 -145.265625 L 75.28125 -160.03125 C 73.507812 -161.113281 71.9375 -162.191406 70.5625 -163.265625 C 69.1875 -164.347656 67.957031 -165.726562 66.875 -167.40625 C 68.445312 -164.15625 69.234375 -160.5625 69.234375 -156.625 L 69.234375 -127.40625 L 56.25 -127.40625 L 56.25 -156.484375 C 56.25 -158.453125 56.367188 -160.269531 56.609375 -161.9375 C 56.859375 -163.613281 57.378906 -165.238281 58.171875 -166.8125 C 57.085938 -165.4375 55.90625 -164.207031 54.625 -163.125 C 53.34375 -162.039062 51.863281 -161.007812 50.1875 -160.03125 L 24.796875 -145.40625 L 18.3125 -156.484375 L 43.703125 -171.25 C 47.441406 -173.507812 51.179688 -174.6875 54.921875 -174.78125 C 52.953125 -174.976562 51.054688 -175.347656 49.234375 -175.890625 C 47.410156 -176.429688 45.566406 -177.296875 43.703125 -178.484375 L 18.15625 -193.390625 L 24.65625 -204.453125 L 50.1875 -189.703125 C 51.957031 -188.617188 53.53125 -187.484375 54.90625 -186.296875 C 56.289062 -185.117188 57.523438 -183.691406 58.609375 -182.015625 C 57.035156 -185.460938 56.25 -189.15625 56.25 -193.09375 L 56.25 -222.328125 L 69.234375 -222.328125 L 69.234375 -193.234375 C 69.234375 -191.265625 69.109375 -189.421875 68.859375 -187.703125 C 68.617188 -185.984375 68.101562 -184.335938 67.3125 -182.765625 C 68.394531 -184.140625 69.578125 -185.367188 70.859375 -186.453125 C 72.140625 -187.535156 73.613281 -188.617188 75.28125 -189.703125 L 100.6875 -204.3125 L 107.171875 -193.234375 L 81.78125 -178.484375 C 80.113281 -177.398438 78.441406 -176.5625 76.765625 -175.96875 C 75.085938 -175.375 73.316406 -174.976562 71.453125 -174.78125 C 73.316406 -174.59375 75.085938 -174.226562 76.765625 -173.6875 C 78.441406 -173.144531 80.113281 -172.332031 81.78125 -171.25 Z M 107.328125 -156.328125 "/></g></g></g></svg>