<svg xmlns="http://www.w3.org/2000/svg" xmlns:xlink="http://www.w3.org/1999/xlink" width="100" zoomAndPan="magnify" viewBox="0 0 75 74.999997" height="100" preserveAspectRatio="xMidYMid meet" version="1.0"><defs><clipPath id="786f727f59"><path d="M 37 52 L 42 52 L 42 65.246094 L 37 65.246094 Z M 37 52 " clip-rule="nonzero"/></clipPath><clipPath id="2476c14ea5"><path d="M 37 6.746094 L 42 6.746094 L 42 20 L 37 20 Z M 37 6.746094 " clip-rule="nonzero"/></clipPath><clipPath id="37dc87e06f"><path d="M 10.421875 34 L 24 34 L 24 39 L 10.421875 39 Z M 10.421875 34 " clip-rule="nonzero"/></clipPath><clipPath id="8b873864f6"><path d="M 55 33 L 68.921875 33 L 68.921875 38 L 55 38 Z M 55 33 " clip-rule="nonzero"/></clipPath></defs><path fill="#000000" d="M 39.671875 49.425781 C 47.144531 49.425781 53.132812 43.363281 53.132812 35.960938 C 53.132812 28.5625 47.074219 22.5 39.671875 22.5 C 32.273438 22.5 26.140625 28.492188 26.140625 35.960938 C 26.140625 43.433594 32.203125 49.425781 39.671875 49.425781 Z M 49.117188 35.960938 C 49.117188 41.179688 44.886719 45.476562 39.601562 45.476562 L 39.601562 26.519531 C 44.886719 26.449219 49.117188 30.746094 49.117188 35.960938 Z M 49.117188 35.960938 " fill-opacity="1" fill-rule="nonzero"/><g clip-path="url(#786f727f59)"><path fill="#000000" d="M 39.882812 52.242188 C 38.757812 52.242188 37.910156 53.160156 37.910156 54.21875 L 37.910156 63.238281 C 37.910156 64.367188 38.828125 65.210938 39.882812 65.210938 C 40.941406 65.210938 41.859375 64.296875 41.859375 63.238281 L 41.859375 54.289062 C 41.859375 53.160156 41.011719 52.242188 39.882812 52.242188 Z M 39.882812 52.242188 " fill-opacity="1" fill-rule="nonzero"/></g><g clip-path="url(#2476c14ea5)"><path fill="#000000" d="M 39.460938 19.679688 C 40.589844 19.679688 41.433594 18.765625 41.433594 17.707031 L 41.433594 8.757812 C 41.433594 7.628906 40.519531 6.78125 39.460938 6.78125 C 38.402344 6.78125 37.488281 7.699219 37.488281 8.757812 L 37.488281 17.707031 C 37.417969 18.765625 38.332031 19.679688 39.460938 19.679688 Z M 39.460938 19.679688 " fill-opacity="1" fill-rule="nonzero"/></g><g clip-path="url(#37dc87e06f)"><path fill="#000000" d="M 12.394531 38.21875 L 21.347656 38.21875 C 22.476562 38.21875 23.320312 37.300781 23.320312 36.246094 C 23.320312 35.1875 22.40625 34.269531 21.347656 34.269531 L 12.394531 34.269531 C 11.269531 34.269531 10.421875 35.1875 10.421875 36.246094 C 10.421875 37.300781 11.269531 38.21875 12.394531 38.21875 Z M 12.394531 38.21875 " fill-opacity="1" fill-rule="nonzero"/></g><g clip-path="url(#8b873864f6)"><path fill="#000000" d="M 55.953125 35.75 C 55.953125 36.878906 56.871094 37.722656 57.925781 37.722656 L 66.949219 37.722656 C 68.078125 37.722656 68.921875 36.808594 68.921875 35.75 C 68.921875 34.695312 68.007812 33.777344 66.949219 33.777344 L 57.996094 33.777344 C 56.800781 33.707031 55.953125 34.625 55.953125 35.75 Z M 55.953125 35.75 " fill-opacity="1" fill-rule="nonzero"/></g><path fill="#000000" d="M 25.152344 24.613281 C 25.929688 25.390625 27.199219 25.390625 27.972656 24.613281 C 28.746094 23.839844 28.746094 22.570312 27.972656 21.796875 L 21.628906 15.453125 C 21.207031 15.027344 20.714844 14.886719 20.21875 14.886719 C 19.726562 14.886719 19.164062 15.101562 18.808594 15.453125 C 18.035156 16.226562 18.035156 17.496094 18.808594 18.269531 Z M 25.152344 24.613281 " fill-opacity="1" fill-rule="nonzero"/><path fill="#000000" d="M 54.121094 47.308594 C 53.699219 46.886719 53.207031 46.746094 52.710938 46.746094 C 52.21875 46.746094 51.65625 46.957031 51.300781 47.308594 C 50.527344 48.085938 50.527344 49.355469 51.300781 50.128906 L 57.644531 56.472656 C 58.421875 57.246094 59.691406 57.246094 60.464844 56.472656 C 61.238281 55.699219 61.238281 54.429688 60.464844 53.652344 Z M 54.121094 47.308594 " fill-opacity="1" fill-rule="nonzero"/><path fill="#000000" d="M 53.839844 24.261719 L 60.183594 17.917969 C 60.957031 17.144531 60.957031 15.875 60.183594 15.101562 C 59.761719 14.675781 59.265625 14.535156 58.773438 14.535156 C 58.28125 14.535156 57.714844 14.746094 57.363281 15.101562 L 51.019531 21.441406 C 50.246094 22.21875 50.246094 23.488281 51.019531 24.261719 C 51.796875 25.039062 53.0625 25.039062 53.839844 24.261719 Z M 53.839844 24.261719 " fill-opacity="1" fill-rule="nonzero"/><path fill="#000000" d="M 26.914062 47.027344 C 26.421875 47.027344 25.859375 47.238281 25.503906 47.59375 L 19.164062 53.933594 C 18.386719 54.710938 18.386719 55.980469 19.164062 56.753906 C 19.9375 57.53125 21.207031 57.53125 21.980469 56.753906 L 28.324219 50.410156 C 29.101562 49.636719 29.101562 48.367188 28.324219 47.59375 C 27.902344 47.238281 27.410156 47.027344 26.914062 47.027344 Z M 26.914062 47.027344 " fill-opacity="1" fill-rule="nonzero"/></svg>