<svg xmlns="http://www.w3.org/2000/svg" xmlns:xlink="http://www.w3.org/1999/xlink" width="1080" zoomAndPan="magnify" viewBox="0 0 810 1439.999935" height="1920" preserveAspectRatio="xMidYMid meet" version="1.0"><defs><clipPath id="1ecd8d06da"><path d="M 23.039062 135 L 139 135 L 139 1264 L 23.039062 1264 Z M 23.039062 135 " clip-rule="nonzero"/></clipPath><clipPath id="0d3c66b817"><path d="M 95.464844 253.113281 L 140.234375 253.113281 L 140.234375 299.613281 L 95.464844 299.613281 Z M 95.464844 253.113281 " clip-rule="nonzero"/></clipPath><clipPath id="453a346f85"><path d="M 100.269531 669.371094 L 139.867188 669.371094 L 139.867188 721.121094 L 100.269531 721.121094 Z M 100.269531 669.371094 " clip-rule="nonzero"/></clipPath><clipPath id="a2cb469663"><path d="M 104.109375 1098.910156 L 148.878906 1098.910156 L 148.878906 1145.410156 L 104.109375 1145.410156 Z M 104.109375 1098.910156 " clip-rule="nonzero"/></clipPath></defs><g clip-path="url(#1ecd8d06da)"><path fill="#100f0f" d="M 56.226562 135.527344 L 23.039062 135.527344 L 23.039062 1263.058594 L 76.339844 1263.058594 L 76.339844 1257.128906 L 56.226562 1257.128906 L 56.226562 1122.859375 L 76.339844 1122.859375 L 76.339844 1116.929688 L 56.226562 1116.929688 L 56.226562 982.65625 L 76.339844 982.65625 L 76.339844 976.730469 L 56.226562 976.730469 L 56.226562 702.257812 L 76.339844 702.257812 L 76.339844 696.328125 L 56.226562 696.328125 L 56.226562 421.855469 L 76.339844 421.855469 L 76.339844 415.929688 L 56.226562 415.929688 L 56.226562 281.65625 L 76.339844 281.65625 L 76.339844 275.726562 L 56.226562 275.726562 Z M 50.296875 1257.128906 L 28.96875 1257.128906 L 28.96875 1122.859375 L 50.296875 1122.859375 Z M 50.296875 976.730469 L 28.96875 976.730469 L 28.96875 702.257812 L 50.296875 702.257812 Z M 50.296875 415.929688 L 28.96875 415.929688 L 28.96875 281.65625 L 50.296875 281.65625 Z M 129.128906 415.929688 L 138.882812 415.929688 L 138.882812 421.855469 L 105.054688 421.855469 L 105.054688 415.929688 L 114.929688 415.929688 L 107.972656 408.96875 L 112.164062 404.777344 L 119.066406 411.679688 L 119.066406 401.921875 L 124.992188 401.921875 L 124.992188 411.679688 L 131.894531 404.777344 L 136.085938 408.96875 Z M 138.882812 135.527344 L 138.882812 141.457031 L 105.054688 141.457031 L 105.054688 135.527344 Z M 124.992188 275.726562 L 138.882812 275.726562 L 138.882812 281.65625 L 105.054688 281.65625 L 105.054688 275.726562 L 119.066406 275.726562 L 119.066406 261.71875 L 124.992188 261.71875 Z M 105.054688 976.730469 L 138.882812 976.730469 L 138.882812 982.65625 L 129.128906 982.65625 L 136.085938 989.613281 L 131.894531 993.808594 L 124.992188 986.90625 L 124.992188 996.664062 L 119.066406 996.664062 L 119.066406 986.90625 L 112.164062 993.808594 L 107.972656 989.613281 L 114.929688 982.65625 L 105.054688 982.65625 Z M 105.054688 1116.929688 L 138.882812 1116.929688 L 138.882812 1122.859375 L 124.992188 1122.859375 L 124.992188 1136.863281 L 119.066406 1136.863281 L 119.066406 1122.859375 L 105.054688 1122.859375 Z M 129.128906 696.328125 L 138.882812 696.328125 L 138.882812 702.257812 L 129.242188 702.257812 L 136.085938 709.101562 L 131.894531 713.292969 L 124.992188 706.390625 L 124.992188 716.148438 L 119.066406 716.148438 L 119.066406 706.390625 L 112.164062 713.292969 L 107.972656 709.101562 L 114.816406 702.257812 L 105.054688 702.257812 L 105.054688 696.328125 L 114.929688 696.328125 L 107.972656 689.371094 L 112.164062 685.179688 L 119.066406 692.078125 L 119.066406 682.320312 L 124.992188 682.320312 L 124.992188 692.078125 L 131.894531 685.179688 L 136.085938 689.371094 Z M 105.054688 1257.128906 L 138.882812 1257.128906 L 138.882812 1263.058594 L 105.054688 1263.058594 Z M 105.054688 1257.128906 " fill-opacity="1" fill-rule="nonzero"/></g><g clip-path="url(#0d3c66b817)"><path fill="#b85bba" d="M 52.507812 126.53125 L 17.234375 126.53125 L 17.234375 1324.96875 L 73.890625 1324.96875 L 73.890625 1318.664062 L 52.507812 1318.664062 L 52.507812 1175.953125 L 73.890625 1175.953125 L 73.890625 1169.648438 L 52.507812 1169.648438 L 52.507812 1026.933594 L 73.890625 1026.933594 L 73.890625 1020.632812 L 52.507812 1020.632812 L 52.507812 728.898438 L 73.890625 728.898438 L 73.890625 722.597656 L 52.507812 722.597656 L 52.507812 430.867188 L 73.890625 430.867188 L 73.890625 424.566406 L 52.507812 424.566406 L 52.507812 281.851562 L 73.890625 281.851562 L 73.890625 275.546875 L 52.507812 275.546875 Z M 46.207031 1318.664062 L 23.539062 1318.664062 L 23.539062 1175.953125 L 46.207031 1175.953125 Z M 46.207031 1020.632812 L 23.539062 1020.632812 L 23.539062 728.898438 L 46.207031 728.898438 Z M 46.207031 424.566406 L 23.539062 424.566406 L 23.539062 281.851562 L 46.207031 281.851562 Z M 129.996094 424.566406 L 140.367188 424.566406 L 140.367188 430.867188 L 104.410156 430.867188 L 104.410156 424.566406 L 114.90625 424.566406 L 107.511719 417.171875 L 111.96875 412.714844 L 119.300781 420.046875 L 119.300781 409.675781 L 125.601562 409.675781 L 125.601562 420.046875 L 132.9375 412.714844 L 137.390625 417.171875 Z M 140.367188 126.53125 L 140.367188 132.832031 L 104.410156 132.832031 L 104.410156 126.53125 Z M 125.601562 275.546875 L 140.367188 275.546875 L 140.367188 281.851562 L 104.410156 281.851562 L 104.410156 275.546875 L 119.300781 275.546875 L 119.300781 260.660156 L 125.601562 260.660156 Z M 104.410156 1020.632812 L 140.367188 1020.632812 L 140.367188 1026.933594 L 129.996094 1026.933594 L 137.390625 1034.328125 L 132.9375 1038.785156 L 125.601562 1031.449219 L 125.601562 1041.820312 L 119.300781 1041.820312 L 119.300781 1031.449219 L 111.96875 1038.785156 L 107.511719 1034.328125 L 114.90625 1026.933594 L 104.410156 1026.933594 Z M 104.410156 1169.648438 L 140.367188 1169.648438 L 140.367188 1175.953125 L 125.601562 1175.953125 L 125.601562 1190.839844 L 119.300781 1190.839844 L 119.300781 1175.953125 L 104.410156 1175.953125 Z M 129.996094 722.597656 L 140.367188 722.597656 L 140.367188 728.898438 L 130.117188 728.898438 L 137.390625 736.175781 L 132.9375 740.628906 L 125.601562 733.296875 L 125.601562 743.667969 L 119.300781 743.667969 L 119.300781 733.296875 L 111.96875 740.628906 L 107.511719 736.175781 L 114.785156 728.898438 L 104.410156 728.898438 L 104.410156 722.597656 L 114.90625 722.597656 L 107.511719 715.203125 L 111.96875 710.746094 L 119.300781 718.082031 L 119.300781 707.710938 L 125.601562 707.710938 L 125.601562 718.082031 L 132.9375 710.746094 L 137.390625 715.203125 Z M 104.410156 1318.664062 L 140.367188 1318.664062 L 140.367188 1324.96875 L 104.410156 1324.96875 Z M 104.410156 1318.664062 " fill-opacity="1" fill-rule="nonzero"/></g><g clip-path="url(#453a346f85)"><path fill="#b85bba" d="M 54.289062 114.722656 L 19.867188 114.722656 L 19.867188 1284.203125 L 75.152344 1284.203125 L 75.152344 1278.054688 L 54.289062 1278.054688 L 54.289062 1138.789062 L 75.152344 1138.789062 L 75.152344 1132.640625 L 54.289062 1132.640625 L 54.289062 993.371094 L 75.152344 993.371094 L 75.152344 987.222656 L 54.289062 987.222656 L 54.289062 702.539062 L 75.152344 702.539062 L 75.152344 696.390625 L 54.289062 696.390625 L 54.289062 411.707031 L 75.152344 411.707031 L 75.152344 405.558594 L 54.289062 405.558594 L 54.289062 266.289062 L 75.152344 266.289062 L 75.152344 260.140625 L 54.289062 260.140625 Z M 48.140625 1278.054688 L 26.019531 1278.054688 L 26.019531 1138.789062 L 48.140625 1138.789062 Z M 48.140625 987.222656 L 26.019531 987.222656 L 26.019531 702.539062 L 48.140625 702.539062 Z M 48.140625 405.558594 L 26.019531 405.558594 L 26.019531 266.289062 L 48.140625 266.289062 Z M 129.902344 405.558594 L 140.023438 405.558594 L 140.023438 411.707031 L 104.9375 411.707031 L 104.9375 405.558594 L 115.179688 405.558594 L 107.960938 398.339844 L 112.308594 393.992188 L 119.46875 401.148438 L 119.46875 391.027344 L 125.617188 391.027344 L 125.617188 401.148438 L 132.773438 393.992188 L 137.121094 398.339844 Z M 140.023438 114.722656 L 140.023438 120.875 L 104.9375 120.875 L 104.9375 114.722656 Z M 125.617188 260.140625 L 140.023438 260.140625 L 140.023438 266.289062 L 104.9375 266.289062 L 104.9375 260.140625 L 119.46875 260.140625 L 119.46875 245.613281 L 125.617188 245.613281 Z M 104.9375 987.222656 L 140.023438 987.222656 L 140.023438 993.371094 L 129.90625 993.371094 L 137.121094 1000.589844 L 132.773438 1004.9375 L 125.617188 997.78125 L 125.617188 1007.898438 L 119.46875 1007.898438 L 119.46875 997.78125 L 112.308594 1004.9375 L 107.960938 1000.589844 L 115.179688 993.371094 L 104.9375 993.371094 Z M 104.9375 1132.640625 L 140.023438 1132.640625 L 140.023438 1138.789062 L 125.617188 1138.789062 L 125.617188 1153.316406 L 119.46875 1153.316406 L 119.46875 1138.789062 L 104.9375 1138.789062 Z M 129.90625 696.390625 L 140.023438 696.390625 L 140.023438 702.539062 L 130.023438 702.539062 L 137.121094 709.636719 L 132.773438 713.984375 L 125.617188 706.828125 L 125.617188 716.949219 L 119.46875 716.949219 L 119.46875 706.828125 L 112.308594 713.984375 L 107.960938 709.636719 L 115.0625 702.539062 L 104.9375 702.539062 L 104.9375 696.390625 L 115.179688 696.390625 L 107.960938 689.171875 L 112.308594 684.824219 L 119.46875 691.984375 L 119.46875 681.859375 L 125.617188 681.859375 L 125.617188 691.984375 L 132.773438 684.824219 L 137.121094 689.171875 Z M 104.9375 1278.054688 L 140.023438 1278.054688 L 140.023438 1284.203125 L 104.9375 1284.203125 Z M 104.9375 1278.054688 " fill-opacity="1" fill-rule="nonzero"/></g><g clip-path="url(#a2cb469663)"><path fill="#b85bba" d="M 191.839844 1271.988281 L 227.109375 1271.988281 L 227.109375 73.554688 L 170.457031 73.554688 L 170.457031 79.855469 L 191.839844 79.855469 L 191.839844 222.566406 L 170.457031 222.566406 L 170.457031 228.871094 L 191.839844 228.871094 L 191.839844 371.585938 L 170.457031 371.585938 L 170.457031 377.886719 L 191.839844 377.886719 L 191.839844 669.621094 L 170.457031 669.621094 L 170.457031 675.921875 L 191.839844 675.921875 L 191.839844 967.652344 L 170.457031 967.652344 L 170.457031 973.953125 L 191.839844 973.953125 L 191.839844 1116.667969 L 170.457031 1116.667969 L 170.457031 1122.972656 L 191.839844 1122.972656 Z M 198.140625 79.855469 L 220.808594 79.855469 L 220.808594 222.566406 L 198.140625 222.566406 Z M 198.140625 377.886719 L 220.808594 377.886719 L 220.808594 669.621094 L 198.140625 669.621094 Z M 198.140625 973.953125 L 220.808594 973.953125 L 220.808594 1116.667969 L 198.140625 1116.667969 Z M 114.351562 973.953125 L 103.980469 973.953125 L 103.980469 967.652344 L 139.9375 967.652344 L 139.9375 973.953125 L 129.441406 973.953125 L 136.835938 981.347656 L 132.378906 985.804688 L 125.046875 978.472656 L 125.046875 988.84375 L 118.746094 988.84375 L 118.746094 978.472656 L 111.410156 985.804688 L 106.957031 981.347656 Z M 103.980469 1271.988281 L 103.980469 1265.6875 L 139.9375 1265.6875 L 139.9375 1271.988281 Z M 118.746094 1122.972656 L 103.980469 1122.972656 L 103.980469 1116.667969 L 139.9375 1116.667969 L 139.9375 1122.972656 L 125.046875 1122.972656 L 125.046875 1137.859375 L 118.746094 1137.859375 Z M 139.9375 377.886719 L 103.980469 377.886719 L 103.980469 371.585938 L 114.351562 371.585938 L 106.957031 364.191406 L 111.410156 359.734375 L 118.746094 367.070312 L 118.746094 356.699219 L 125.046875 356.699219 L 125.046875 367.070312 L 132.378906 359.734375 L 136.835938 364.191406 L 129.441406 371.585938 L 139.9375 371.585938 Z M 139.9375 228.871094 L 103.980469 228.871094 L 103.980469 222.566406 L 118.746094 222.566406 L 118.746094 207.679688 L 125.046875 207.679688 L 125.046875 222.566406 L 139.9375 222.566406 Z M 114.351562 675.921875 L 103.980469 675.921875 L 103.980469 669.621094 L 114.230469 669.621094 L 106.957031 662.347656 L 111.410156 657.890625 L 118.746094 665.222656 L 118.746094 654.851562 L 125.046875 654.851562 L 125.046875 665.222656 L 132.378906 657.890625 L 136.835938 662.347656 L 129.5625 669.621094 L 139.9375 669.621094 L 139.9375 675.921875 L 129.441406 675.921875 L 136.835938 683.316406 L 132.378906 687.773438 L 125.046875 680.4375 L 125.046875 690.808594 L 118.746094 690.808594 L 118.746094 680.4375 L 111.410156 687.773438 L 106.957031 683.316406 Z M 139.9375 79.855469 L 103.980469 79.855469 L 103.980469 73.554688 L 139.9375 73.554688 Z M 139.9375 79.855469 " fill-opacity="1" fill-rule="nonzero"/></g></svg>