<svg width="256" height="269" viewBox="0 0 256 269" fill="none" xmlns="http://www.w3.org/2000/svg">
<mask id="mask0_48_691" style="mask-type:luminance" maskUnits="userSpaceOnUse" x="0" y="0" width="256" height="269">
<path d="M0 0H256V269H0V0Z" fill="white"/>
</mask>
<g mask="url(#mask0_48_691)">
<path d="M62.0556 268.471C59.6776 268.488 57.3335 268.2 55.0204 267.612C52.7072 267.021 50.4962 266.142 48.3809 264.979C46.878 264.166 45.5421 263.399 44.2216 262.649C37.8265 258.971 33.5992 256.546 24.3961 258.324L24.0931 258.38L24.0467 258.056C22.4108 247.086 18.2082 242.711 11.2471 235.464L10.1895 234.351C3.50372 227.365 2.04719 220.899 1.70083 211.409C1.59569 208.365 1.46272 205.259 1.33902 202.104C0.565916 183.183 -0.303055 161.728 1.88638 143.161C4.02015 125.083 15.0879 110.672 25.7939 96.728C34.7093 85.1364 43.9 73.1516 47.9202 59.1213C51.0342 48.2467 47.2646 39.8372 35.702 31.8076C32.356 29.4979 28.9327 27.5153 25.5991 25.5954C15.4436 19.7137 5.77355 14.1393 1.75959 0.46261L1.62352 0.0198278H2.06574C10.2328 0.608001 18.5669 1.1367 26.6319 1.65217C52.9608 3.31426 80.1896 5.04243 106.583 9.27199C116.689 10.8977 127.269 12.9431 137.495 14.9257C164.594 20.1796 192.621 25.6021 219.265 24.8982H219.568V25.2221C219.5 28.5396 219.231 31.8374 218.758 35.1186C218.217 39.5629 217.654 44.1824 218.164 48.5078C218.897 55.0371 222.503 60.4563 225.988 65.6903C227.253 67.5937 228.567 69.563 229.708 71.5456C234.672 80.1568 236.935 88.8472 239.338 98.0366C239.833 99.9432 240.324 101.85 240.853 103.753C243.636 113.95 248.801 120.166 255.347 128.05L255.762 128.552L255.459 128.747C240.776 138.518 233.929 156.157 227.312 173.21C219.512 193.314 211.454 214.095 190.459 221.355C184.104 223.612 177.564 225.802 171.305 227.854C158.728 232.034 145.746 236.353 133.172 241.191C125.184 244.287 117.401 248.179 109.877 251.933C98.4163 257.65 86.5693 263.581 73.7759 266.763C69.932 267.814 66.0232 268.382 62.0556 268.471ZM30.1449 257.085C35.869 257.085 39.5675 259.213 44.5711 262.091C45.8606 262.834 47.1996 263.601 48.6964 264.414C57.1016 268.95 64.4863 268.448 73.6646 266.162C86.3961 262.986 98.2184 257.085 109.651 251.368C117.187 247.601 124.974 243.709 132.993 240.609C145.554 235.748 158.555 231.43 171.15 227.269C177.428 225.184 183.919 223.033 190.261 220.842C211.002 213.669 218.659 193.942 226.761 173.058C233.37 156.021 240.201 138.402 254.84 128.493C248.303 120.579 243.089 114.317 240.278 104.014C239.749 102.071 239.248 100.165 238.763 98.2976C236.385 89.1512 234.112 80.5136 229.198 71.9719C228.066 70.0025 226.761 68.0397 225.499 66.1463C221.968 60.8429 218.319 55.3478 217.564 48.673C217.069 44.265 217.642 39.6224 218.189 35.1252C218.634 31.9794 218.903 28.8139 218.99 25.6351C192.383 26.2695 164.433 20.8835 137.406 15.6428C127.191 13.6668 116.634 11.6247 106.494 9.99234C80.1308 5.74626 52.9113 4.028 26.5979 2.36922C18.672 1.86696 10.4926 1.34487 2.45539 0.766609C6.50337 13.8221 15.9507 19.2908 25.9423 25.0899C29.2667 26.9932 32.7024 29.0022 36.0484 31.3252C47.8769 39.5001 51.7177 48.1377 48.5325 59.3229C44.4783 73.4754 35.2351 85.5131 26.2918 97.1543C15.6415 111.019 4.63245 125.363 2.51723 143.257C0.333983 161.771 1.20295 183.196 1.97606 202.097C2.09976 205.272 2.22345 208.362 2.33787 211.402C2.67495 220.733 4.1222 227.084 10.6596 233.921L11.7172 235.005C18.6968 242.278 22.9396 246.692 24.6404 257.636C26.4619 257.286 28.2957 257.101 30.1449 257.085Z" fill="#812FFF"/>
</g>
<path d="M210.062 31.345C206.722 31.345 203.345 31.0543 200.021 30.7668C196.95 30.4991 193.774 30.2216 190.768 30.2017C188.081 30.2017 185.418 30.2017 182.706 30.2017C176.215 30.2017 169.499 30.2017 162.887 29.8581C145.35 28.8205 128.054 26.068 110.993 21.6005C75.5355 12.3847 37.4523 10.379 4.52417 9.20924V8.57481C37.4739 9.76107 75.6004 11.7998 111.108 20.9859C128.131 25.4534 145.393 28.2059 162.893 29.2435C169.486 29.6103 176.197 29.597 182.682 29.5871C185.369 29.5871 188.032 29.5871 190.744 29.5871C193.78 29.5871 196.966 29.8845 200.046 30.1522C206.518 30.7106 213.219 31.2889 219.355 29.6631L219.497 30.2976C216.392 31.0543 213.247 31.4012 210.062 31.345Z" fill="#812FFF"/>
<path d="M155.874 43.3134C143.884 43.3134 131.561 40.6997 117.2 35.2144C87.6022 23.9136 52.8526 17.7279 10.9503 16.2905V15.656C52.9176 17.0934 87.729 23.2792 117.354 34.6164C135.841 41.6777 150.935 43.961 166.283 42.0148C170.918 41.4266 175.56 40.3461 180.044 39.3052C183.674 38.4593 187.432 37.5837 191.171 36.9724C194.894 36.4371 198.633 36.1132 202.387 36.0075C208.123 35.7332 213.544 35.4788 219.117 33.6713L219.287 34.2727C213.646 36.1165 207.935 36.3809 202.411 36.6419C198.679 36.7477 194.962 37.0649 191.26 37.6002C187.54 38.2379 183.795 39.0805 180.174 39.9264C175.674 40.9673 171.02 42.0544 166.354 42.6459C162.872 43.0887 159.38 43.3101 155.874 43.3134Z" fill="#812FFF"/>
<path d="M154.804 59.6236C144.911 59.6236 135.188 55.9392 124.56 50.4639L120.821 48.5573C105.365 40.5741 92.0676 33.6878 74.9046 32.2141C66.0325 31.4541 57.2685 29.4285 48.7984 27.469C39.4902 25.3179 29.8728 23.0941 20.0822 22.5422L20.11 21.9078C29.9501 22.4662 39.5953 24.6934 48.9221 26.8478C57.3768 28.804 66.119 30.8229 74.9541 31.5796C92.2222 33.06 105.597 39.976 121.081 47.9857L124.819 49.8923C140.798 58.1036 154.618 62.2572 170.145 55.85C173.636 54.2937 176.992 52.4565 180.211 50.3351C183.776 48.1377 187.419 45.8577 191.368 44.3773C195.444 42.854 199.492 42.1734 203.41 41.5158C208.655 40.6302 213.612 39.8008 218.653 37.1111L218.913 37.6761C213.795 40.4088 208.565 41.2911 203.506 42.1238C199.613 42.7582 195.586 43.4521 191.563 44.9622C187.67 46.4227 184.033 48.6796 180.508 50.8704C177.261 53.0017 173.878 54.8521 170.362 56.4217C165.364 58.5365 160.178 59.6038 154.804 59.6236Z" fill="#812FFF"/>
<path d="M158.601 76.9252C149.958 76.9252 141.234 72.1603 132.393 66.6487C128.654 64.3158 124.952 61.7748 121.371 59.313C116.226 55.7741 110.9 52.1162 105.384 49.0332C97.2103 44.4666 89.9741 43.2539 81.606 41.8496C79.9701 41.572 78.294 41.2911 76.5591 40.9739C69.4899 39.7051 62.7206 37.3656 56.1646 35.112C47.9728 32.2967 39.5181 29.3955 30.4542 28.5298L30.5068 27.8953C39.6202 28.7545 48.1274 31.7085 56.3471 34.5073C62.8875 36.751 69.6321 39.0739 76.6612 40.3527C78.3899 40.6633 80.066 40.9475 81.6957 41.2217C90.1163 42.6393 97.3928 43.8586 105.662 48.4682C111.197 51.561 116.535 55.2289 121.712 58.7777C125.277 61.2362 128.982 63.7772 132.708 66.1001C148.081 75.686 161.966 82.4566 176.191 68.1389C178.12 66.1167 179.93 63.9755 181.618 61.7186C184.485 58.0541 187.444 54.2607 191.254 51.7395C195.416 49.0035 199.718 47.7313 203.899 46.4988C208.599 45.1143 213.47 43.6802 218.068 40.1181L218.421 40.6369C213.73 44.2584 208.807 45.719 204.054 47.1101C199.922 48.3294 195.648 49.595 191.569 52.2814C187.837 54.7464 184.911 58.5002 182.057 62.125C180.356 64.4017 178.529 66.5628 176.584 68.6048C170.621 74.632 164.631 76.9252 158.601 76.9252Z" fill="#812FFF"/>
<path d="M163.53 94.0416C155.802 94.0416 147.366 88.6886 139.907 83.2067C136.073 80.3881 132.476 77.5794 128.994 74.8599C114.989 63.9291 102.897 54.4985 84.3396 51.0158C76.8807 49.6114 70.0743 46.3732 63.4936 43.2406C56.2357 39.7876 48.7273 36.209 40.3097 35.0921L40.3808 34.4577C48.8943 35.5812 56.4305 39.1763 63.7441 42.6591C70.2815 45.7685 77.057 49.01 84.454 50.3813C103.142 53.8872 115.285 63.3641 129.35 74.3411C132.829 77.0507 136.425 79.8594 140.251 82.6747C148.9 89.0256 158.882 95.2246 167.353 92.9049C172.702 91.4378 177.162 86.8084 180.972 78.7293C181.887 76.793 182.706 74.7013 183.498 72.6824C185.406 67.8481 187.367 62.8486 190.88 59.0453C191.693 58.0838 192.593 57.2246 193.579 56.4679C194.566 55.7112 195.614 55.0768 196.728 54.5613C197.841 54.0459 198.994 53.6592 200.185 53.4081C201.375 53.157 202.578 53.0446 203.791 53.0678H203.834C206.595 52.2979 209.153 51.0455 211.5 49.314C213.85 47.5793 215.851 45.4678 217.506 42.9829L217.985 43.3563C217.144 44.6219 216.204 45.7982 215.168 46.8886C214.135 47.9758 213.015 48.9605 211.819 49.8394C210.622 50.7184 209.363 51.4817 208.04 52.126C206.716 52.7671 205.352 53.2826 203.945 53.6725H203.868C202.687 53.6394 201.518 53.7452 200.358 53.9864C199.198 54.2243 198.079 54.5944 196.993 55.0933C195.908 55.5923 194.888 56.2069 193.926 56.9438C192.967 57.6773 192.092 58.5133 191.303 59.4518C187.865 63.1725 185.923 68.1157 184.042 72.8971C183.241 74.9293 182.416 77.0276 181.494 78.9837C177.607 87.2413 173.03 91.9797 167.495 93.4898C166.196 93.8533 164.872 94.0383 163.53 94.0416Z" fill="#812FFF"/>
<path d="M168.648 111.389C161.403 111.389 153.109 104.645 147.521 100.095L146.083 98.9321C141.327 95.1222 136.948 91.1966 132.708 87.4131C119.766 75.838 107.539 64.9139 89.0185 61.2229C81.6399 59.7492 75.3469 55.9888 69.2115 52.3309C62.5844 48.3855 55.7285 44.308 47.4841 43.1283L47.5614 42.4939C55.9203 43.6867 62.8225 47.7974 69.5022 51.7725C75.5726 55.3874 81.844 59.1213 89.1174 60.5686C107.789 64.2926 120.076 75.273 133.107 86.8977C137.334 90.7076 141.707 94.5902 146.451 98.4001L147.892 99.5632C153.727 104.315 162.55 111.479 169.83 110.666C179.051 109.625 181.547 98.3935 183.365 90.1921L183.634 88.986C184.027 87.2479 184.352 85.4371 184.704 83.5239C185.892 77.0078 187.11 70.2669 190.982 65.3831C191.798 64.3686 192.707 63.4599 193.709 62.6603C194.714 61.8573 195.787 61.1832 196.929 60.6347C198.073 60.0862 199.257 59.6765 200.482 59.4055C201.709 59.1346 202.949 59.0123 204.202 59.0321C206.982 57.6509 209.499 55.85 211.751 53.6262C214.002 51.4024 215.882 48.8647 217.391 46.0097L217.901 46.3302C216.364 49.2447 214.447 51.8386 212.149 54.112C209.849 56.382 207.279 58.2259 204.44 59.6368L204.313 59.6666C203.098 59.6434 201.895 59.7591 200.701 60.0201C199.511 60.2812 198.36 60.6777 197.25 61.2097C196.14 61.7417 195.098 62.3959 194.124 63.1758C193.15 63.9523 192.265 64.8345 191.473 65.8225C187.707 70.5808 186.498 77.2556 185.329 83.6693C184.976 85.5759 184.652 87.4065 184.253 89.1578L183.984 90.3639C182.125 98.7503 179.574 110.233 169.932 111.327C169.505 111.373 169.078 111.393 168.648 111.389Z" fill="#812FFF"/>
<path d="M171.2 124.303C164.266 124.303 156.931 118.276 151.736 114.013C151.059 113.455 150.415 112.926 149.815 112.444C144.079 107.844 138.723 102.58 133.577 97.498C129.285 93.2684 124.838 88.8902 120.209 84.9349C109.373 75.6728 102.322 74.2519 89.5163 71.6712C82.4501 70.2504 76.6116 66.5462 70.9649 62.9709C64.5821 58.9231 57.9829 54.7133 49.5653 53.8311L49.6241 53.1933C58.1839 54.1152 64.8419 58.3349 71.2803 62.4191C76.8807 65.9679 82.6759 69.6391 89.6431 71.0434C102.124 73.5844 109.639 75.0714 120.589 84.426C125.243 88.4011 129.69 92.786 133.992 97.0288C139.159 102.111 144.503 107.375 150.214 111.954C150.808 112.437 151.464 112.966 152.141 113.524C158.477 118.732 168.055 126.596 175.919 122.581C182.583 119.178 183.557 110.633 184.42 103.092C184.556 101.932 184.679 100.806 184.828 99.7416C185.109 97.7326 185.267 95.4856 185.422 93.1032C186.018 85.1199 186.665 76.066 191.841 70.8716L191.891 70.8352C196.165 68.0398 200.766 66.1563 205.692 65.1881C208.287 63.1923 210.609 60.8892 212.663 58.2721C214.716 55.6584 216.435 52.81 217.821 49.7337L218.356 50.0079C216.94 53.1438 215.183 56.045 213.083 58.7083C210.984 61.3716 208.605 63.7144 205.955 65.7399L205.835 65.7961C200.967 66.7444 196.424 68.5949 192.2 71.3474C187.206 76.3535 186.56 85.2587 185.988 93.1098C185.814 95.5022 185.647 97.7722 185.394 99.7978C185.252 100.858 185.119 101.975 184.989 103.132C184.151 110.454 183.105 119.564 176.151 123.113C174.586 123.916 172.934 124.313 171.2 124.303Z" fill="#812FFF"/>
<path d="M169.369 133.938C161.777 133.938 154.012 127.835 149.265 124.098C143.606 119.654 138.25 114.234 133.07 109C121.371 97.1742 109.295 84.9481 92.7695 82.8003C84.5066 81.7264 77.0693 78.5013 69.8702 75.3688C62.0247 71.9587 53.904 68.433 44.7751 67.7787L44.8153 67.1443C54.04 67.7787 62.204 71.354 70.0959 74.7641C77.2301 77.8702 84.6612 81.1184 92.8407 82.1526C109.537 84.317 121.712 96.6223 133.481 108.518C138.646 113.739 143.992 119.138 149.621 123.566C155.945 128.546 167.727 137.811 176.964 130.66C181.72 126.969 183.068 117.575 183.95 111.356C184.073 110.481 184.188 109.655 184.305 108.905C184.59 107.094 184.8 104.88 185.02 102.554C185.904 93.0966 187.017 81.3265 194 77.0078L194.114 76.9681C199.109 76.3205 203.71 74.513 207.91 71.5523C212.675 66.6586 216.408 60.9883 219.104 54.5415L219.645 54.8026C216.912 61.3452 213.124 67.0914 208.278 72.0479C204.007 75.0714 199.328 76.9185 194.244 77.5926C187.568 81.7726 186.482 93.3312 185.607 102.616C185.388 104.972 185.18 107.203 184.893 109.04C184.775 109.784 184.655 110.603 184.537 111.479C183.64 117.797 182.289 127.356 177.31 131.199C176.157 132.101 174.904 132.785 173.544 133.254C172.186 133.724 170.794 133.952 169.369 133.938Z" fill="#812FFF"/>
<path d="M162.977 144.671C156.229 144.671 149.763 139.939 144.305 135.944L144.24 135.901C137.737 131.163 131.845 125.033 126.121 119.095C114.602 107.16 102.69 94.8182 85.8148 93.6055C77.759 93.0206 70.0094 90.9951 62.5134 89.0323C53.6969 86.7259 44.5773 84.3368 34.9846 84.3368H34.9011V83.7024H34.9784C44.6361 83.7024 53.7927 86.098 62.6432 88.4144C70.1084 90.3706 77.8363 92.3928 85.8271 92.9678C102.916 94.2003 114.905 106.625 126.502 118.636C132.21 124.544 138.111 130.654 144.549 135.366L144.608 135.412C151.671 140.577 160.463 147.004 169.177 142.48C176.905 138.459 179.923 125.909 182.125 116.743C182.487 115.213 182.83 113.772 183.177 112.47C183.603 110.851 184.002 109.109 184.426 107.272C186.51 98.1589 189.102 86.8217 197.649 82.7507L197.764 82.7177C199.013 82.7078 200.247 82.5624 201.465 82.2782C202.687 81.9941 203.865 81.5777 205.006 81.0292C206.144 80.484 207.217 79.8165 208.228 79.0301C209.236 78.2469 210.161 77.3581 210.996 76.3668C215.183 71.1128 218.585 65.3302 221.195 59.019L221.736 59.2734C219.107 65.6508 215.678 71.4928 211.448 76.7963C210.588 77.8174 209.638 78.7327 208.602 79.5455C207.563 80.3551 206.459 81.0424 205.291 81.6074C204.118 82.1725 202.906 82.6054 201.651 82.8994C200.395 83.1968 199.124 83.3521 197.841 83.3654C189.609 87.3339 187.141 98.0135 185.007 107.431C184.584 109.281 184.188 111.019 183.752 112.658C183.415 113.931 183.068 115.391 182.7 116.914C180.477 126.203 177.434 138.911 169.446 143.065C167.405 144.139 165.25 144.674 162.977 144.671Z" fill="#812FFF"/>
<path d="M152.005 154.623C147.178 154.623 141.933 152.581 136.116 148.458C128.982 143.415 122.775 136.694 116.754 130.198C104.675 117.162 93.2613 104.84 75.2077 104.84H74.9819C67.3498 104.88 59.7827 104.173 52.4475 103.489C42.7063 102.573 32.625 101.632 22.4757 102.458L22.4293 101.823C32.6312 100.984 42.728 101.932 52.4969 102.848C59.826 103.532 67.3931 104.242 74.9789 104.199H75.2077C93.5117 104.199 105.009 116.61 117.175 129.745C123.174 136.218 129.381 142.913 136.441 147.926C144.169 153.381 150.793 155.126 156.764 153.259C168.231 149.664 175.192 132.815 181.327 117.945L181.451 117.631C182.048 116.141 182.676 114.591 183.272 113.085C187.095 103.347 191.053 93.2816 200.296 88.834C213.17 82.6416 217.088 77.5662 223.888 63.3377L224.417 63.6251C217.546 78.0123 213.575 83.1439 200.54 89.4122C191.511 93.7575 187.599 103.71 183.817 113.332C183.223 114.839 182.629 116.396 181.998 117.886L181.868 118.203C175.662 133.201 168.648 150.215 156.913 153.877C155.311 154.376 153.675 154.623 152.005 154.623Z" fill="#812FFF"/>
<path d="M140.854 166.605C136.181 166.605 131.341 164.89 126.378 161.473C119.018 156.391 112.747 149.009 106.679 141.879C95.3023 128.499 84.5654 115.834 67.0469 116.472C50.088 117.037 30.111 117.995 10.5174 120.81L10.4401 120.172C30.0553 117.354 50.054 116.362 67.0314 115.83C84.7974 115.193 96.1558 128.532 107.118 141.466C113.164 148.567 119.411 155.915 126.706 160.951C133.243 165.448 139.552 166.942 145.502 165.399C159.031 161.847 168.834 143.362 176.707 128.513C177.898 126.289 179.002 124.194 180.097 122.201C180.774 120.969 181.451 119.703 182.134 118.428C187.314 108.759 193.181 97.802 203.268 93.3444C205.158 92.5051 206.744 91.9896 208.142 91.527C211.41 90.4531 213.776 89.6799 217.06 85.7676C220.654 81.4653 223.121 76.0594 225.512 70.8286C225.96 69.8505 226.406 68.8791 226.848 67.9175L227.38 68.205C226.931 69.1566 226.492 70.1083 226.047 71.1062C223.638 76.3799 221.155 81.8222 217.506 86.1905C214.116 90.2317 211.686 91.0314 208.321 92.1383C206.936 92.5943 205.349 93.1098 203.5 93.9293C193.601 98.3042 187.784 109.172 182.66 118.745C181.971 120.014 181.293 121.286 180.613 122.555C179.528 124.544 178.408 126.639 177.233 128.863C169.301 143.815 159.399 162.432 145.65 166.053C144.073 166.443 142.471 166.628 140.854 166.605Z" fill="#812FFF"/>
<path d="M129.665 179.353C125.574 179.353 121.344 178.031 117.027 174.988C109.83 169.906 103.785 162.025 97.9463 154.379C88.1495 141.555 78.028 128.298 62.1979 128.228H61.8113C48.7675 128.228 34.9474 131.176 21.5727 134.027C15.0941 135.405 8.97728 136.714 2.90686 137.718L2.81409 137.081C8.86905 136.079 14.9859 134.778 21.4614 133.396C34.8578 130.538 48.7149 127.587 61.8113 127.587H62.1979C78.3063 127.657 88.5237 141.033 98.4039 153.973C104.218 161.592 110.226 169.45 117.354 174.456C139.635 190.106 159.257 158.787 172.245 138.059C174.264 134.834 176.172 131.784 177.867 129.276C178.634 128.152 179.379 127.039 180.121 125.935C188.412 113.554 195.577 102.871 209.338 97.8152C220.15 93.8401 224.003 85.6156 228.876 75.197L229.94 72.9434L230.469 73.2276C230.113 73.9909 229.755 74.741 229.411 75.4844C224.655 85.6453 220.573 94.3589 209.533 98.4133C195.951 103.413 188.86 114.013 180.604 126.309C179.865 127.416 179.116 128.529 178.355 129.656C176.661 132.154 174.753 135.194 172.736 138.422C162.108 155.374 147.094 179.353 129.665 179.353Z" fill="#812FFF"/>
<path d="M120.938 191.401C119.095 191.401 117.283 191.13 115.511 190.591C113.736 190.053 112.063 189.263 110.495 188.225C102.903 183.322 97.0834 174.658 91.4738 166.288C82.3666 152.733 73.7635 139.922 58.1498 140.93C46.7172 141.674 34.9072 144.595 23.4869 147.417C16.4362 149.161 9.14423 150.966 2.08732 152.211L1.99146 151.577C9.02053 150.338 16.3001 148.534 23.3446 146.792C34.7866 143.96 46.6182 141.033 58.1004 140.289C74.0449 139.272 83.1459 152.809 91.9438 165.911C97.5349 174.231 103.321 182.839 110.805 187.674C132.535 201.717 157.608 164.731 172.588 142.632C175.739 137.983 178.457 133.968 180.703 131.047L181.689 129.778C186.445 123.546 191.415 117.073 197.266 111.898C201.174 108.416 204.932 106.935 208.902 105.379C210.866 104.606 212.892 103.813 214.954 102.752C223.468 98.3604 227.296 90.4663 231.344 82.1064C231.873 81.0159 232.414 79.9123 232.964 78.7987L233.49 79.0895C232.937 80.2031 232.402 81.3067 231.873 82.4004C227.775 90.853 223.907 98.8462 215.226 103.324C213.136 104.397 211.098 105.227 209.122 105.977C205.201 107.513 201.49 108.971 197.655 112.387C191.854 117.555 186.955 123.972 182.159 130.171L181.179 131.44C178.943 134.345 176.228 138.353 173.083 142.989C160.327 161.827 140.247 191.401 120.938 191.401Z" fill="#812FFF"/>
<path d="M118.236 203.673C116.693 203.65 115.183 203.406 113.705 202.94C112.227 202.474 110.835 201.803 109.53 200.931C102.291 196.324 96.8516 187.964 91.5852 179.885C83.4243 167.355 74.9819 154.402 59.761 155.668C47.9232 156.652 35.4546 159.524 23.388 162.293C16.3372 163.912 9.04222 165.587 2.08118 166.833L1.9884 166.199C8.93089 164.959 16.2166 163.281 23.2612 161.662C35.3464 158.886 47.8428 156.015 59.7177 155.027C75.2757 153.754 83.817 166.84 92.0738 179.518C97.2969 187.538 102.709 195.842 109.834 200.375C121.758 207.965 131.657 197.563 139.61 189.197C149.877 178.398 159.315 166.4 168.447 154.795C173.244 148.699 178.201 142.391 183.217 136.344L184.519 134.771C189.708 128.493 195.07 122.003 201.45 117.106C204.712 114.598 208.219 113.296 211.608 112.08C214.15 111.237 216.603 110.17 218.971 108.875C225.608 104.999 228.901 98.5587 232.383 91.7253C233.435 89.6667 234.529 87.5387 235.711 85.4867L236.218 85.8171C235.027 87.8559 233.954 89.9773 232.906 92.0293C229.374 98.9255 226.047 105.445 219.234 109.413C216.834 110.725 214.348 111.809 211.775 112.665C208.426 113.884 204.969 115.15 201.777 117.602C195.45 122.459 190.107 128.919 184.942 135.171L183.64 136.744C178.628 142.784 173.67 149.092 168.874 155.165C159.739 166.783 150.286 178.798 140.003 189.61C133.92 196.076 126.693 203.673 118.236 203.673Z" fill="#812FFF"/>
<path d="M120.499 210.169C117.574 210.136 114.846 209.34 112.314 207.777C105.687 203.881 100.383 197.735 95.2527 191.794C86.2538 181.366 77.7403 171.515 62.9091 173.478C43.4423 176.019 22.9766 178.92 2.09351 182.026L2.01001 181.392C22.8993 178.286 43.365 175.408 62.838 172.837C77.9723 170.841 86.5816 180.807 95.6919 191.358C100.788 197.263 106.061 203.369 112.598 207.235C124.12 214.012 133.197 204.853 141.976 195.987L142.697 195.264C152.741 185.152 161.956 173.719 170.872 162.627C175.943 156.338 181.185 149.842 186.51 143.663L188.069 141.846C193.283 135.772 198.673 129.491 205.099 124.98C207.761 123.113 210.699 121.957 213.541 120.84C216.38 119.723 219.2 118.616 221.724 116.832C226.987 113.111 229.894 107.636 232.964 101.843C234.483 98.8461 236.168 95.9614 238.024 93.1924L238.5 93.5658C236.663 96.3183 234.99 99.1799 233.484 102.154C230.512 107.761 227.432 113.554 222.058 117.36C219.472 119.188 216.559 120.331 213.736 121.438C210.912 122.542 208.018 123.685 205.414 125.509C199.047 129.957 193.685 136.231 188.495 142.278L186.934 144.093C181.612 150.262 176.376 156.758 171.311 163.046C162.395 174.112 153.158 185.559 143.08 195.713L142.363 196.44C135.9 202.973 128.768 210.169 120.499 210.169Z" fill="#812FFF"/>
<path d="M123.381 210.635C121.034 210.619 118.752 210.196 116.535 209.363C110.192 207.047 105.074 203.825 100.126 200.706C90.5646 194.685 82.2955 189.484 68.3208 192.6C55.3079 195.505 42.1651 195.848 29.4924 196.179C20.5398 196.414 11.278 196.648 2.07495 197.778L2.01001 197.144C11.2409 196.014 20.5089 195.772 29.4738 195.538C42.1404 195.207 55.243 194.87 68.2002 191.972C82.4068 188.797 91.1645 194.315 100.429 200.154C105.353 203.254 110.443 206.455 116.73 208.755C128.499 213.061 137.631 205.084 145.684 198.052C155.886 189.16 165.129 178.712 174.063 168.624C178.052 164.12 182.178 159.464 186.328 155.013L186.516 154.809C193.162 147.678 200.039 140.302 208.194 135.412C210.124 134.305 212.103 133.327 214.141 132.478C217.372 131.054 220.428 129.709 223.158 127.264C227.318 123.566 229.903 118.421 232.436 113.441C234.542 109.294 236.722 105.005 239.777 101.526L240.213 101.956C237.21 105.379 235.046 109.628 232.958 113.745C230.404 118.775 227.76 123.979 223.545 127.753C220.737 130.254 217.499 131.681 214.367 133.066C212.347 133.905 210.384 134.87 208.476 135.964C200.392 140.818 193.542 148.16 186.928 155.261L186.736 155.456C182.577 159.904 178.473 164.56 174.487 169.057C165.534 179.162 156.279 189.61 146.055 198.542C139.521 204.288 132.238 210.635 123.381 210.635Z" fill="#812FFF"/>
<path d="M49.5004 215.225C43.5567 215.225 37.61 214.769 31.7561 214.323C21.984 213.576 11.878 212.806 2.07499 214.161L1.99768 213.523C11.8594 212.165 21.9964 212.935 31.7963 213.682C45.0937 214.7 58.8457 215.747 71.8988 211.422C74.1748 210.665 76.4323 209.809 78.6217 208.977C84.287 206.829 90.1472 204.602 96.5021 204.149C102.124 203.749 107.613 204.783 112.92 205.837C115.749 206.386 118.681 206.951 121.603 207.295C142.82 209.756 160.487 192.019 176.073 176.359C180.056 172.358 183.801 168.574 187.528 165.227C193.347 159.98 199.866 154.485 208.173 149.829C209.23 149.237 210.254 148.692 211.24 148.167C215.548 145.874 219.265 143.884 222.855 139.483C226.242 135.329 228.675 130.29 231.035 125.42C233.948 119.399 236.978 113.167 241.787 108.531L242.186 109.007C237.43 113.567 234.458 119.743 231.564 125.714C229.186 130.614 226.736 135.683 223.307 139.896C219.639 144.4 215.87 146.406 211.506 148.738C210.52 149.257 209.502 149.799 208.451 150.394C200.194 155.02 193.703 160.495 187.914 165.716C184.216 169.05 180.458 172.824 176.478 176.825C160.803 192.571 143.04 210.431 121.538 207.949C118.567 207.605 115.653 207.04 112.812 206.485C107.545 205.471 102.112 204.417 96.5361 204.81C90.2647 205.256 84.7076 207.351 78.8165 209.604C76.624 210.437 74.3604 211.296 72.0751 212.05C64.6873 214.485 57.0954 215.225 49.5004 215.225Z" fill="#812FFF"/>
<path d="M57.2346 232.566C49.3458 232.566 41.4107 231.297 33.6239 230.025C24.158 228.482 14.3705 226.883 4.87679 227.649L4.8335 227.015C14.3984 226.248 24.2199 227.848 33.7105 229.397C47.6697 231.671 62.1021 234.027 75.8324 228.813C82.6048 226.272 88.7989 222.676 94.7828 219.227C104.784 213.474 114.234 208.032 126.288 206.67C127.77 206.505 129.22 206.36 130.658 206.221C138.188 205.471 145.304 204.76 152.651 201.202C161.932 196.691 170.485 190.327 178.711 184.174C182.391 181.428 186.189 178.597 190.005 175.966C193.573 173.495 197.182 171.456 200.652 169.486C208.974 164.768 216.785 160.317 222.701 150.876C225.428 146.363 227.927 141.704 230.191 136.902C234.041 129.071 238.018 120.975 244.224 114.344L244.648 114.786C238.5 121.355 234.542 129.395 230.719 137.196C228.443 142.027 225.936 146.713 223.193 151.26C217.196 160.832 209.295 165.316 200.927 170.071C197.473 172.034 193.901 174.066 190.326 176.525C186.529 179.148 182.731 181.983 179.033 184.719C170.764 190.892 162.21 197.276 152.877 201.806C145.452 205.408 138.29 206.118 130.704 206.888C129.273 207.034 127.822 207.179 126.341 207.344C114.413 208.653 105.043 214.039 95.0642 219.775C89.0587 223.228 82.8491 226.807 76.0427 229.391C69.9444 231.615 63.6761 232.675 57.2346 232.566Z" fill="#812FFF"/>
<path d="M62.6896 245.764C54.1019 245.764 45.8916 243.345 37.8729 240.982C29.7398 238.58 21.3346 236.105 12.5491 236.105H12.1687V235.471H12.5553C21.4181 235.471 29.8666 237.959 38.0337 240.368C50.2148 243.956 61.7155 247.353 74.6913 243.365C84.9272 240.219 93.7808 233.786 102.344 227.554C110.817 221.401 119.584 215.03 129.653 211.875C133.982 210.625 138.367 209.684 142.808 209.046C147.397 208.279 152.141 207.483 156.671 205.986C165.414 203.101 173.766 198.803 181.831 194.646C183.879 193.592 185.929 192.538 187.985 191.51L190.434 190.277C204.446 183.289 212.898 179.046 221.411 163.601C223.984 158.919 226.248 154.002 228.437 149.244C233.37 138.525 238.469 127.439 247.298 118.999L247.691 119.469C238.951 127.829 234.103 138.366 228.972 149.525C226.777 154.29 224.507 159.216 221.922 163.925C213.315 179.535 204.313 184.039 190.685 190.869L188.23 192.095C186.179 193.129 184.132 194.183 182.088 195.231C173.998 199.397 165.627 203.706 156.841 206.607C152.265 208.117 147.505 208.914 142.898 209.68C138.482 210.318 134.121 211.253 129.82 212.496C119.822 215.638 111.101 221.953 102.665 228.082C94.0653 234.337 85.1715 240.784 74.8397 243.963C70.8722 245.179 66.8211 245.78 62.6896 245.764Z" fill="#812FFF"/>
<path d="M62.9091 257.111C57.1696 257.085 51.6527 255.878 46.3616 253.496C43.8814 252.409 41.5219 251.1 39.2273 249.838C33.2373 246.507 27.5844 243.372 20.2832 244.317L20.212 243.682C27.6833 242.717 33.426 245.899 39.5026 249.273C41.7724 250.542 44.1196 251.811 46.5749 252.905C55.645 256.88 64.443 257.517 74.2707 254.91C86.0281 251.788 96.4835 245.321 106.596 239.066C114.46 234.199 122.587 229.176 131.31 225.726C141.577 221.662 152.336 218.331 162.745 215.113C171.2 212.496 179.942 209.789 188.359 206.703C206.138 200.194 212.904 191.381 221.334 174.099C223.461 169.731 225.428 165.151 227.33 160.723C233.209 147.04 239.292 132.897 250.959 123.249L251.321 123.751C239.765 133.277 233.722 147.364 227.871 160.978C225.963 165.422 223.996 169.995 221.857 174.38C213.535 191.464 206.401 200.752 188.567 207.295C180.134 210.381 171.382 213.087 162.924 215.711C152.528 218.923 141.778 222.25 131.533 226.311C122.853 229.754 114.744 234.764 106.905 239.618C96.7588 245.893 86.2662 252.382 74.4253 255.528C70.6463 256.559 66.8087 257.088 62.9091 257.111Z" fill="#812FFF"/>
<path d="M38.2471 258.317C37.2545 251.877 33.9796 247.271 30.5192 242.4C28.407 239.598 26.5361 236.621 24.9033 233.475C21.3347 226.093 21.0687 217.971 20.8368 210.113C20.7935 208.702 20.7533 207.288 20.6945 205.871C20.4039 198.971 19.7019 191.669 19.0246 184.597C17.5836 169.596 16.0992 154.078 18.0722 139.718C19.8565 126.761 28.2308 114.902 35.6186 104.44C36.9205 102.6 38.1513 100.865 39.348 99.1172C40.7736 97.042 42.3662 94.8479 44.0485 92.5316C51.628 82.113 61.0507 69.1501 61.5362 56.8083C62.133 42.1998 50.5983 33.9423 38.4203 25.1659C29.0874 18.4647 19.4452 11.5421 15.6941 1.49362L16.2415 1.25571C19.94 11.1225 29.4987 17.9955 38.7357 24.6372C50.521 33.1096 62.702 41.8694 62.1206 56.8348C61.6258 69.3847 52.1321 82.4302 44.5062 92.9182C42.8239 95.2379 41.2313 97.422 39.8119 99.4939C38.6213 101.239 37.3843 102.98 36.0824 104.827C28.7379 115.226 20.4069 127.009 18.6504 139.813C16.6868 154.092 18.168 169.566 19.606 184.534C20.2832 191.612 20.9852 198.928 21.2759 205.844C21.3347 207.262 21.378 208.679 21.4182 210.094C21.6563 218.239 21.882 225.928 25.4198 233.184C27.0371 236.297 28.8895 239.241 30.983 242.01C34.3414 246.739 37.8204 251.616 38.8347 258.208L38.2471 258.317Z" fill="#812FFF"/>
<path d="M47.979 264.549C47.3852 259.414 45.9998 254.385 44.6422 249.57C43.6032 245.86 42.5332 242.023 41.825 238.137C40.6376 231.436 40.1304 224.461 39.6634 217.717C39.3542 213.269 39.0666 208.716 38.5162 204.281C37.7956 198.128 36.6236 191.655 35.3835 184.809C32.4086 168.327 29.3131 151.283 32.0963 136.357C34.5795 122.988 43.1331 112.011 51.4023 101.424C60.2528 90.0797 69.4002 78.3427 70.9711 63.7441C72.5823 48.7292 60.6332 37.7026 49.083 26.9866C40.8973 19.4229 32.4395 11.5983 29.0626 2.48818L29.6162 2.25357C32.9405 11.2216 41.3457 18.9901 49.4695 26.5108C61.1403 37.3093 73.207 48.4681 71.5587 63.8135C69.9723 78.6004 60.763 90.4102 51.86 101.83C43.6403 112.381 35.133 123.285 32.6777 136.496C29.9192 151.309 32.9931 168.257 35.9649 184.706C37.2081 191.566 38.3832 198.046 39.1099 204.218C39.6263 208.666 39.9479 213.259 40.2572 217.69C40.7272 224.411 41.2066 231.367 42.4157 238.015C43.1703 241.855 44.1042 245.642 45.2143 249.379C46.575 254.246 47.9852 259.282 48.5665 264.466L47.979 264.549Z" fill="#812FFF"/>
<path d="M59.7889 268.468C59.7611 242.463 58.2613 222.399 54.94 203.399C53.9535 197.785 52.497 191.725 50.9631 185.311C46.8719 168.264 42.2363 148.94 45.8143 133.38C48.347 122.353 55.4193 113.055 62.269 104.123C70.3001 93.6121 78.597 82.7441 79.4289 69.0807C80.3566 53.8377 69.7651 41.5323 59.523 29.6169C52.432 21.3593 45.1061 12.8506 41.856 3.53901L42.4095 3.31431C45.6194 12.5136 52.9114 20.9859 59.9559 29.184C70.2877 41.2019 80.9689 53.6262 80.0226 69.1236C79.1815 82.9919 70.8165 93.9359 62.7329 104.53C55.9265 113.422 48.8881 122.644 46.3925 133.532C42.8239 148.94 47.4656 168.181 51.5321 185.152C53.0784 191.579 54.5349 197.646 55.5214 203.287C58.855 222.339 60.3548 242.417 60.3827 268.468H59.7889Z" fill="#812FFF"/>
<path d="M76.3457 265.907H75.7488C75.9993 240.361 74.1995 219.921 69.8949 199.652C68.8311 194.642 67.3684 189.237 65.8222 183.513C61.1279 166.185 55.812 146.541 60.0208 130.703C62.4947 121.412 68.3425 113.415 74.0511 105.686C81.3492 95.7566 88.9102 85.4933 89.1081 72.4841C89.3555 57.38 79.6669 44.2089 70.2938 31.4607C63.9327 22.81 57.352 13.8651 54.1792 4.55345L54.7358 4.33867C57.8746 13.5479 64.4275 22.4531 70.7855 31.0708C80.2205 43.895 89.9802 57.1652 89.7266 72.4908C89.5101 85.7147 81.9028 96.0706 74.5428 106.079C68.896 113.765 63.0545 121.706 60.6145 130.882C56.4552 146.534 61.7464 166.09 66.419 183.335C67.9683 189.051 69.431 194.481 70.501 199.513C74.7871 219.825 76.5993 240.302 76.3457 265.907Z" fill="#812FFF"/>
<path d="M91.5635 260.501C90.7409 237.457 89.0586 218.054 83.4954 198.254C82.6233 195.148 81.6461 191.936 80.6132 188.529C75.1551 170.554 68.9672 150.179 74.3542 132.94C76.8621 124.911 81.9801 117.304 86.9311 109.942C94.8136 98.2282 102.981 86.1079 101.125 71.767C99.2791 57.2907 90.5739 44.83 82.1595 32.7791C76.0767 24.0788 69.7929 15.0843 66.1809 5.46869L66.7252 5.22748C70.2938 14.8068 76.5776 23.7681 82.6326 32.4321C91.0935 44.5492 99.8729 57.0759 101.716 71.7109C103.559 86.3458 95.361 98.5256 87.4135 110.349C82.4842 117.664 77.3971 125.235 74.9294 133.175C69.5795 150.215 75.7612 170.484 81.1884 188.364C82.2306 191.778 83.2047 194.989 84.0768 198.109C89.6586 217.991 91.347 237.444 92.1696 260.534L91.5635 260.501Z" fill="#812FFF"/>
<path d="M106.12 253.751L106.086 253.318C104.406 233.412 102.962 216.21 94.4735 197.977C87.4413 182.859 80.2731 163.162 87.3424 144.849C90.2307 137.368 95.0394 130.056 99.6935 122.988C108.142 110.15 116.872 96.8834 115.292 81.353C113.569 64.4579 103.624 49.2876 94.0065 34.6164C87.9361 25.3444 81.6585 15.7717 77.7002 6.03379L78.2476 5.77935C82.1997 15.471 88.4525 25.0139 94.5044 34.243C104.165 48.977 114.12 64.2167 115.904 81.244C117.515 97.009 108.711 110.378 100.204 123.312C95.5342 130.37 90.778 137.646 87.8835 145.071C80.9163 163.142 88.032 182.674 95.0147 197.669C103.559 216.015 105.009 233.24 106.692 253.235L106.726 253.668L106.12 253.751Z" fill="#812FFF"/>
<path d="M119.797 246.706C119.448 243.798 119.231 240.616 119.006 237.242C118.471 229.328 117.865 220.367 115.183 213.817C113.507 209.72 111.34 207.936 108.587 205.672C107.755 204.982 106.886 204.271 105.965 203.439C94.7951 193.364 92.6366 177.073 100.182 159.851C103.219 152.909 107.768 146.178 112.577 139.057C122.441 124.448 132.643 109.318 129.458 91.8079C126.05 73.0756 115.833 55.85 105.946 39.1895C99.7708 28.7775 93.388 18.0186 88.87 7.14401L89.4112 6.88957C93.9106 17.6882 100.287 28.4868 106.454 38.8459C116.337 55.5758 126.61 72.8344 130.039 91.6856C133.28 109.47 122.995 124.716 113.056 139.427C108.266 146.528 103.735 153.229 100.717 160.125C93.2983 177.067 95.4012 193.079 106.345 202.956C107.261 203.782 108.13 204.486 108.949 205.167C111.766 207.483 113.99 209.32 115.731 213.563C118.455 220.205 119.061 229.232 119.596 237.196C119.828 240.556 120.042 243.732 120.391 246.623L119.797 246.706Z" fill="#812FFF"/>
<path d="M133.042 240.864C132.792 239.152 132.631 236.538 132.448 233.501C131.929 225.102 131.218 213.606 127.964 210.272C125.141 207.381 123.941 207.619 121.95 208.018C120.484 208.359 119.003 208.445 117.509 208.279C112.83 207.731 109.574 205.603 107.839 201.971C103.825 193.582 108.968 179.664 112.635 172.754C115.808 166.783 120.088 160.895 124.625 154.663C135.324 139.965 146.352 124.772 143.801 106.955C141.809 93.0338 134.48 78.8813 128.008 66.4008C126.817 64.0746 125.67 61.8838 124.566 59.693C122.587 55.7608 120.546 51.7989 118.573 47.9626C112.063 35.3136 105.34 22.2317 99.7584 8.70037L100.3 8.44593C105.875 21.9508 112.592 35.0228 119.089 47.6619C121.065 51.4751 123.103 55.4701 125.082 59.3956C126.186 61.5864 127.324 63.7772 128.524 66.0968C135.015 78.6269 142.375 92.829 144.382 106.866C146.977 124.95 135.847 140.256 125.088 155.056C120.57 161.275 116.303 167.124 113.146 173.078C109.537 179.865 104.468 193.535 108.389 201.661C110.031 205.091 113.146 207.096 117.599 207.625C119.033 207.79 120.456 207.704 121.866 207.364C123.895 206.964 125.361 206.67 128.404 209.79C131.824 213.289 132.566 224.933 133.07 233.432C133.256 236.456 133.423 239.059 133.667 240.741L133.042 240.864Z" fill="#812FFF"/>
<path d="M145.959 236.403C145.74 235.031 145.56 232.953 145.366 230.541C144.71 222.855 143.73 211.237 139.895 208.488C136.728 206.208 135.092 207.07 132.835 208.26C131.555 208.993 130.206 209.532 128.79 209.872C124.037 210.906 120.737 210.057 119.024 207.331C115.221 201.291 120.456 187.214 125.191 179.614C128.286 174.638 132.251 169.671 136.447 164.414C147.886 150.077 159.733 135.247 156.758 117.341C154.423 103.105 147.481 89.1149 140.758 75.5704C139.264 72.5601 137.851 69.7217 136.503 66.8833C134.428 62.5446 132.3 58.1565 130.237 53.9071C123.412 39.8372 116.355 25.2849 110.31 10.4418L110.851 10.1873C116.897 25.0139 123.929 39.553 130.766 53.613C132.823 57.8624 134.956 62.2539 137.031 66.5958C138.38 69.4243 139.79 72.2693 141.287 75.2796C147.713 88.226 154.995 102.897 157.336 117.202C160.308 135.405 147.861 151.032 136.864 164.807C132.702 170.055 128.725 175.008 125.651 179.941C121.003 187.406 115.833 201.159 119.482 206.958C121.047 209.439 124.124 210.203 128.636 209.224C130.002 208.894 131.304 208.375 132.535 207.662C134.789 206.482 136.735 205.451 140.192 207.936C144.265 210.857 145.22 222.187 145.916 230.458C146.12 232.854 146.296 234.903 146.513 236.271L145.959 236.403Z" fill="#812FFF"/>
<path d="M158.283 232.153C157.995 230.561 157.782 228.545 157.525 226.215C156.749 219.025 155.685 209.175 151.547 205.477C148.86 203.068 147.283 203.28 145.109 203.571C143.816 203.782 142.52 203.842 141.215 203.749C136.342 203.316 133.209 201.552 131.901 198.502C129.208 192.22 134.873 182.393 138.482 177.096C141.404 172.804 145.239 168.535 149.293 164.014C159.399 152.763 170.822 140.008 168.815 124.633C167.062 111.211 159.959 96.9395 153.7 84.3434C151.884 80.7053 150.174 77.2688 148.616 73.9215C146.367 69.0773 144.107 64.2464 141.828 59.4319C134.588 44.0601 127.108 28.1695 120.533 12.0873L121.081 11.8329C127.621 27.9019 135.123 43.7826 142.357 59.1478C144.626 63.9655 146.893 68.7931 149.151 73.6274C150.703 76.9681 152.413 80.4046 154.222 84.0394C160.503 96.6785 167.631 111.009 169.403 124.537C171.453 140.226 159.894 153.12 149.723 164.444C145.678 168.954 141.862 173.21 138.961 177.466C136.06 181.722 129.78 192.025 132.424 198.231C133.611 201.063 136.583 202.675 141.243 203.108C142.508 203.197 143.767 203.141 145.019 202.936C147.255 202.639 149.027 202.398 151.915 204.982C156.229 208.844 157.312 218.84 158.103 226.139C158.354 228.456 158.567 230.452 158.845 232.034L158.283 232.153Z" fill="#812FFF"/>
<path d="M170.046 228.089C169.588 225.707 169.189 223.318 168.803 221.008C166.83 209.155 164.968 197.963 155.453 190.304C145.69 182.446 144.871 176.578 152.005 165.181C154.578 161.074 158.245 157.135 162.108 152.975C170.034 144.469 178.232 135.676 177.95 124.392C177.666 112.913 170.383 98.7669 164.529 87.4C162.745 83.9007 161.029 80.5963 159.649 77.6224C157.073 72.0711 154.436 66.457 151.878 61.0214C144.586 45.5042 137.019 29.4583 130.302 13.2802L130.843 13.0258C137.576 29.184 145.109 45.2233 152.407 60.7339C154.964 66.1728 157.608 71.7935 160.178 77.3382C161.551 80.3055 163.252 83.6 165.052 87.0926C170.937 98.5257 178.26 112.741 178.544 124.372C178.832 136.004 170.587 144.826 162.572 153.394C158.709 157.535 155.066 161.447 152.527 165.505C145.625 176.525 146.392 182.192 155.809 189.769C165.516 197.583 167.393 208.894 169.39 220.892C169.771 223.199 170.17 225.588 170.627 227.963L170.046 228.089Z" fill="#812FFF"/>
<path d="M181.287 224.206C180.14 218.619 179.466 212.585 178.819 206.746C177.536 195.217 176.209 183.295 171.187 173.343C170.216 171.439 169.146 169.671 168.113 167.97C164.452 161.956 161.288 156.758 164.922 148.501C166.746 144.347 169.808 140.564 172.761 136.902C177.613 130.902 182.629 124.696 182.57 116.541C182.487 106.278 176.324 93.5526 171.363 83.3323C169.944 80.398 168.596 77.6158 167.489 75.1144C163.561 66.2224 159.439 57.2412 155.459 48.564C150.363 37.468 145.103 26.0019 140.179 14.5755L140.708 14.2913C145.625 25.7244 150.885 37.1574 155.976 48.2666C159.965 56.9504 164.084 65.925 168.011 74.8302C169.118 77.3316 170.46 80.094 171.883 83.0217C176.862 93.3048 183.068 106.099 183.176 116.515C183.241 124.911 178.148 131.206 173.225 137.305C170.293 140.93 167.281 144.677 165.469 148.738C161.978 156.669 165.058 161.731 168.624 167.59C169.666 169.298 170.742 171.069 171.722 172.999C176.797 183.061 178.13 195.049 179.45 206.634C180.096 212.456 180.761 218.48 181.909 224.038L181.287 224.206Z" fill="#812FFF"/>
<path d="M192.039 220.486C190.1 210.361 189.828 199.906 189.565 189.795C189.293 179.205 189.009 168.257 186.792 157.749C185.981 153.906 183.931 150.001 181.952 146.227C179.33 141.234 176.602 136.066 176.726 130.945C176.828 125.965 178.646 121.838 180.4 117.843C182.558 112.926 184.794 107.851 183.817 101.149C180.798 80.3154 170.794 59.5542 161.115 39.4737C157.277 31.5103 153.65 23.983 150.49 16.5383L151.028 16.274C154.185 23.712 157.806 31.2261 161.647 39.183C171.342 59.313 181.367 80.1205 184.407 101.053C185.406 107.946 183.133 113.124 180.941 118.111C179.212 122.046 177.422 126.12 177.319 130.958C177.221 135.914 179.889 140.993 182.468 145.917C184.472 149.726 186.541 153.672 187.373 157.611C189.596 168.181 189.881 179.155 190.159 189.775C190.422 199.863 190.694 210.285 192.627 220.36L192.039 220.486Z" fill="#812FFF"/>
<path d="M202.251 216.134C199.873 202.593 200.38 188.823 200.859 175.54C201.205 165.881 201.561 155.902 200.831 146.049C200.154 136.962 198.731 129.96 193.762 123.183C192.918 122.099 192.005 121.084 191.022 120.143C189.609 118.712 188.146 117.232 187.212 115.404C184.775 110.639 185.078 105.24 185.363 100.032C185.589 97.227 185.607 94.4183 185.419 91.6096C183.514 71.8364 175.217 52.5358 167.192 33.8662C164.891 28.5264 162.717 23.4675 160.682 18.3953L161.23 18.1475C163.261 23.2262 165.432 28.2588 167.727 33.6052C175.783 52.2979 184.104 71.6481 186.006 91.527C186.207 94.3688 186.192 97.2105 185.957 100.052C185.672 105.177 185.363 110.474 187.741 115.08C188.632 116.818 190.066 118.256 191.446 119.66C192.448 120.625 193.382 121.663 194.238 122.776C199.304 129.696 200.779 136.79 201.437 145.999C202.173 155.889 201.811 165.888 201.468 175.56C200.986 188.83 200.491 202.543 202.851 216.015L202.251 216.134Z" fill="#812FFF"/>
<path d="M211.37 205.305C209.694 192.101 210.551 178.768 211.37 165.875C212.041 155.38 212.737 144.532 212.066 133.803C211.185 119.736 206.215 112.691 196.74 103.902C189.609 97.3063 187.954 91.5138 186.891 81.0357C184.698 59.2039 177.499 39.2721 170.569 20.0078L171.122 19.7798C178.071 39.064 185.252 59.0585 187.484 80.9829C188.539 91.2924 190.178 96.9759 197.139 103.429C206.735 112.321 211.775 119.482 212.666 133.78C213.337 144.545 212.666 155.42 211.97 165.931C211.144 178.795 210.294 192.095 211.97 205.236L211.37 205.305Z" fill="#812FFF"/>
<path d="M219.59 189.425C218.248 179.442 218.944 168.568 219.621 158.05C221.025 136.169 222.475 113.537 205.454 98.1324C197.494 90.9256 191.189 85.2256 189.643 72.7848C187.503 55.6352 185.484 39.4506 180.025 21.3725L180.591 21.1775C186.059 39.3118 188.087 55.5262 190.233 72.7022C191.761 84.9018 197.958 90.5225 205.841 97.65C223.081 113.263 221.631 136.053 220.215 158.093C219.537 168.581 218.841 179.423 220.18 189.336L219.59 189.425Z" fill="#812FFF"/>
<path d="M227.086 172.183C224.476 162.342 224.862 152.059 225.233 142.113C225.861 125.159 226.461 109.146 212.879 96.3811L212.542 96.0639C203.03 87.1058 195.481 80.0312 194.049 65.6243C193.644 61.593 193.335 57.5848 193.032 53.7088C192.206 43.1415 191.421 33.1558 188.996 22.5423L189.59 22.3969C192.027 33.0534 192.813 43.0655 193.638 53.6593C193.941 57.5253 194.232 61.5269 194.656 65.5615C196.044 79.714 203.5 86.6994 212.935 95.5914L213.272 95.9086C227.064 108.881 226.461 125.04 225.827 142.143C225.459 152.039 225.079 162.273 227.658 171.998L227.086 172.183Z" fill="#812FFF"/>
<path d="M234.09 156.074C229.888 146.971 229.6 137.322 229.334 127.987C228.954 114.978 228.598 102.686 218.307 92.1879L216.525 90.4036C208.392 82.146 203.011 76.6972 200.779 63.3906C199.641 56.6233 199.328 49.6644 198.994 42.9301C198.704 36.5792 198.401 30.0002 197.42 23.5898L198.014 23.4807C199.007 29.9275 199.304 36.523 199.588 42.9004C199.891 49.6115 200.182 56.5473 201.341 63.2749C203.54 76.38 208.862 81.7793 216.909 89.9509C217.506 90.5292 218.099 91.1206 218.693 91.7386C229.155 102.415 229.52 114.833 229.903 127.974C230.172 137.239 230.45 146.825 234.594 155.793L234.09 156.074Z" fill="#812FFF"/>
<path d="M240.884 142.804C235.104 134.662 233.75 124.964 232.491 115.586C231.087 105.376 229.637 94.8181 222.444 86.1806C221.405 84.9084 220.388 83.7453 219.401 82.602C213.491 75.7422 208.819 70.3197 207.316 59.9838C206.382 53.5832 206.283 46.9448 206.187 40.5311C206.11 35.2838 206.033 29.8647 205.498 24.6074L206.091 24.5348C206.632 29.8283 206.685 35.2573 206.787 40.5179C206.883 46.9118 206.976 53.5304 207.903 59.8846C209.385 70.0455 214.005 75.3886 219.84 82.1724C220.833 83.3223 221.85 84.5086 222.896 85.7609C230.209 94.5373 231.669 105.19 233.085 115.493C234.356 124.792 235.677 134.407 241.36 142.424L240.884 142.804Z" fill="#812FFF"/>
<path d="M247.768 133.472C240.575 125.046 237.953 114.648 235.445 104.536C233.292 95.8788 231.063 86.9241 225.932 79.1291C224.544 77.021 223.087 75.1077 221.677 73.254C217.836 68.2182 214.212 63.4533 212.987 56.0285C212.023 50.1732 212.338 43.885 212.641 37.805C212.91 33.7142 212.984 29.6202 212.867 25.5195H213.464C213.584 29.6433 213.51 33.7605 213.241 37.8744C212.938 43.9147 212.647 50.1666 213.581 55.9525C214.769 63.2121 218.337 67.9109 222.141 72.8839C223.56 74.7476 225.023 76.6971 226.427 78.7987C231.622 86.6928 233.864 95.707 236.032 104.421C238.63 114.889 241.091 124.746 248.219 133.092L247.768 133.472Z" fill="#812FFF"/>
</svg>
