<svg width="177" height="21" viewBox="0 0 177 21" fill="none" xmlns="http://www.w3.org/2000/svg">
<path d="M20.4789 2.46961L18.0343 0.00219727L10.2395 7.8772L2.44244 0.00219727L0 2.46961L7.79915 10.3468L0 18.2218L2.44244 20.6913L10.2395 12.8142L18.0343 20.6913L20.4789 18.2218L12.6819 10.3468L20.4789 2.46961Z" fill="black"/>
<path d="M72.6519 2.46961L70.2094 0.00219727L62.4124 7.8772L54.6175 0.00219727L52.173 2.46961L59.97 10.3468L52.173 18.2218L54.6175 20.6913L62.4124 12.8142L70.2094 20.6913L72.6519 18.2218L64.857 10.3468L72.6519 2.46961Z" fill="black"/>
<path d="M124.827 2.46961L122.382 0.00219727L114.588 7.8772L106.791 0.00219727L104.348 2.46961L112.145 10.3468L104.348 18.2218L106.791 20.6913L114.588 12.8142L122.382 20.6913L124.827 18.2218L117.03 10.3468L124.827 2.46961Z" fill="black"/>
<mask id="mask0_32_546" style="mask-type:luminance" maskUnits="userSpaceOnUse" x="156" y="0" width="21" height="21">
<path d="M156.444 0H177V21H156.444V0Z" fill="white"/>
</mask>
<g mask="url(#mask0_32_546)">
<path d="M177 2.46961L174.558 0.00219727L166.761 7.8772L158.966 0.00219727L156.521 2.46961L164.318 10.3468L156.521 18.2218L158.966 20.6913L166.761 12.8142L174.558 20.6913L177 18.2218L169.201 10.3468L177 2.46961Z" fill="black"/>
</g>
</svg>
