<svg width="21" height="177" viewBox="0 0 21 177" fill="none" xmlns="http://www.w3.org/2000/svg">
<path d="M2.46959 156.521L0.00217628 158.966L7.87718 166.761L0.00217628 174.558L2.46959 177L10.3467 169.201L18.2217 177L20.6913 174.558L12.8142 166.761L20.6913 158.966L18.2217 156.521L10.3467 164.318L2.46959 156.521Z" fill="#100F0F"/>
<path d="M2.46959 104.348L0.00217628 106.79L7.87718 114.587L0.00217628 122.382L2.46959 124.827L10.3467 117.03L18.2217 124.827L20.6913 122.382L12.8142 114.587L20.6913 106.79L18.2217 104.348L10.3467 112.143L2.46959 104.348Z" fill="#100F0F"/>
<path d="M2.46959 52.1729L0.00217628 54.6175L7.87718 62.4124L0.00217628 70.2094L2.46959 72.6519L10.3467 64.8548L18.2217 72.6519L20.6913 70.2094L12.8142 62.4124L20.6913 54.6175L18.2217 52.1729L10.3467 59.97L2.46959 52.1729Z" fill="#100F0F"/>
<mask id="mask0_33_578" style="mask-type:luminance" maskUnits="userSpaceOnUse" x="0" y="0" width="21" height="21">
<path d="M0 20.5557L0 -0.000106812H21V20.5557H0Z" fill="white"/>
</mask>
<g mask="url(#mask0_33_578)">
<path d="M2.46956 -0.000152588L0.00214958 2.44229L7.87715 10.2393L0.00214958 18.0342L2.46956 20.4788L10.3467 12.6817L18.2217 20.4788L20.6913 18.0342L12.8141 10.2393L20.6913 2.44229L18.2217 -0.000152588L10.3467 7.799L2.46956 -0.000152588Z" fill="#100F0F"/>
</g>
</svg>
